<?xml version="1.0" encoding="UTF-8"?>
<!DOCTYPE svg PUBLIC "-//W3C//DTD SVG 1.1//EN" "http://www.w3.org/Graphics/SVG/1.1/DTD/svg11.dtd">
<!-- Creator: CorelDRAW 2021 (64-Bit) -->
<svg xmlns="http://www.w3.org/2000/svg" xml:space="preserve" width="500px" height="500px" version="1.1" shape-rendering="geometricPrecision" text-rendering="geometricPrecision" image-rendering="optimizeQuality" fill-rule="evenodd" clip-rule="evenodd"
viewBox="0 0 500 500"
 xmlns:xlink="http://www.w3.org/1999/xlink"
 xmlns:xodm="http://www.corel.com/coreldraw/odm/2003">
 <g id="Layer_x0020_2">
  <metadata id="CorelCorpID_0Corel-Layer"/>
  <rect fill="none" x="0.47" y="0.39" width="500" height="500"/>
  <g id="_1752443805360">
   <path fill="#DB3333" stroke="black" stroke-width="4" stroke-linecap="round" stroke-linejoin="round" stroke-miterlimit="2.61313" d="M231.43 222.36c0,0 -11.01,-4.92 -10.87,-11.77 0.6,-1.78 13.24,-4.81 19.3,-1.61 0,0 4.64,2.52 -8.43,13.38z"/>
   <path fill="none" stroke="black" stroke-width="4" stroke-linecap="round" stroke-linejoin="round" stroke-miterlimit="2.61313" d="M217.74 227.13c0.02,1.02 13.53,16.5 28.36,-0.91m-39.81 -3.41c0,0 16.79,10.6 25.14,-0.45m0 0c0,0 9.31,11.74 24.71,-2.36"/>
   <path fill="#FF9999" d="M219.08 227.94c0.35,-0.14 7.11,1.36 12.37,-4.57 0.26,-0.01 4.61,5.32 12.76,3.97 -3.83,3.97 -14.39,12.39 -25.13,0.6z"/>
  </g>
 </g>
</svg>
