<?xml version="1.0" encoding="UTF-8"?>
<!DOCTYPE svg PUBLIC "-//W3C//DTD SVG 1.1//EN" "http://www.w3.org/Graphics/SVG/1.1/DTD/svg11.dtd">
<!-- Creator: CorelDRAW 2021 (64-Bit) -->
<svg xmlns="http://www.w3.org/2000/svg" xml:space="preserve" width="500px" height="500px" version="1.1" shape-rendering="geometricPrecision" text-rendering="geometricPrecision" image-rendering="optimizeQuality" fill-rule="evenodd" clip-rule="evenodd"
viewBox="0 0 500 500"
 xmlns:xlink="http://www.w3.org/1999/xlink"
 xmlns:xodm="http://www.corel.com/coreldraw/odm/2003">
 <g id="Layer_x0020_2">
  <metadata id="CorelCorpID_0Corel-Layer"/>
  <rect fill="none" x="0.47" y="0.39" width="500" height="500"/>
  <g id="_1752651946176">
   <g>
    <path fill="none" stroke="black" stroke-width="2" stroke-linecap="round" stroke-linejoin="round" stroke-miterlimit="2.61313" d="M212.26 207.73c0,0 0.85,0.38 2.19,0.75 1.34,0.36 3.16,0.72 5.12,0.67 0,0 1.17,29.46 9.33,31.99 4.08,1.27 6.96,-6.42 8.81,-14.43 1.86,-8 2.69,-16.33 2.69,-16.33 -7.19,-0.36 -10.82,-8.3 -10.82,-8.3 -2.22,5.48 -6.35,6.99 -10.01,7.07m20.83 1.23c2.05,0.1 4.38,-0.4 7,-1.88"/>
    <path fill="#FF9966" d="M220.61 210.09c0,0 5.76,-0.06 9.04,-5.86 0,0 3.42,5.98 9.74,7.05 0,0 -2.99,28.79 -9.62,29.06 0,0 -7.15,1.09 -9.16,-30.25z"/>
   </g>
   <path fill="#FFCC99" d="M223.46 230.4c0,0 6.86,-7.62 12.38,0.22 0,0 -1.58,7.98 -5.77,9.84 -1.12,-0.01 -4.28,-0.91 -6.61,-10.06z"/>
  </g>
 </g>
</svg>
