<?xml version="1.0" encoding="UTF-8"?>
<!DOCTYPE svg PUBLIC "-//W3C//DTD SVG 1.1//EN" "http://www.w3.org/Graphics/SVG/1.1/DTD/svg11.dtd">
<!-- Creator: CorelDRAW 2021 (64-Bit) -->
<svg xmlns="http://www.w3.org/2000/svg" xml:space="preserve" width="500px" height="500px" version="1.1" shape-rendering="geometricPrecision" text-rendering="geometricPrecision" image-rendering="optimizeQuality" fill-rule="evenodd" clip-rule="evenodd"
viewBox="0 0 500 500"
 xmlns:xlink="http://www.w3.org/1999/xlink"
 xmlns:xodm="http://www.corel.com/coreldraw/odm/2003">
 <g id="Layer_x0020_2">
  <metadata id="CorelCorpID_0Corel-Layer"/>
  <rect fill="none" x="0.47" y="0.39" width="500" height="500"/>
  <g id="_1752443768016">
   <g>
    <path fill="black" stroke="black" stroke-width="2" stroke-linecap="round" stroke-linejoin="round" stroke-miterlimit="2.61313" d="M231.58 220.3c0,0 21.41,-7.69 15.43,-14.18 0,0 -4.09,-5.25 -17.29,-3.05 0,0 -16.61,1.02 -15.87,6.34 0,0 0.05,1.57 1.89,3.54 2.18,2.33 5.79,5.84 15.84,7.35z"/>
    <path fill="white" stroke="black" stroke-width="2" stroke-linecap="round" stroke-linejoin="round" stroke-miterlimit="2.61313" d="M217.59 207.73c0,0 0.62,-7.18 20.08,-3.4 0,0 5.41,1.41 2.55,4.51 0,0 -14.7,1.09 -19.06,2.02 0,0 -3.88,-0.45 -3.57,-3.13z"/>
    <path fill="#FF9999" stroke="black" stroke-width="2" stroke-linecap="round" stroke-linejoin="round" stroke-miterlimit="2.61313" d="M204.4 229.8c0,0 0.77,-2.74 4.92,-4.18l-4.92 4.18z"/>
    <g>
     <path fill="#BC4B47" d="M206.86 227.71c0,0 3.78,3.97 8.44,6.23l-8.44 -6.23zm41.75 7.78c-3.21,22 -18.73,22.37 -18.73,22.37 -14.66,-1.27 -14.58,-23.91 -14.58,-23.91 4.81,2.34 11.19,3.6 17.28,-1.02 0,0 6.48,6.3 16.03,2.56zm0 0c2.1,-0.82 4.48,-2.17 6.84,-4.14l-6.84 4.14z"/>
     <path id="_1" fill="none" stroke="black" stroke-width="2" stroke-linecap="round" stroke-linejoin="round" stroke-miterlimit="2.61313" d="M206.86 227.71c0,0 3.78,3.97 8.44,6.23m33.31 1.55c-3.21,22 -18.73,22.37 -18.73,22.37 -14.66,-1.27 -14.58,-23.91 -14.58,-23.91 4.81,2.34 11.19,3.6 17.28,-1.02 0,0 6.48,6.3 16.03,2.56zm0 0c2.1,-0.82 4.48,-2.17 6.84,-4.14"/>
    </g>
    <path fill="none" stroke="black" stroke-width="2" stroke-linecap="round" stroke-linejoin="round" stroke-miterlimit="2.61313" d="M254.44 228.73c0,0 0.36,1.28 1.01,2.62m0 0c0.53,1.08 1.24,2.19 2.12,2.68"/>
    <path fill="#FF9FA0" d="M241.76 250.39c-7.88,7.54 -11.81,6.63 -11.81,6.63 -5.17,-0.44 -7.47,-3.27 -9.94,-7.01 11.21,-12.31 21.51,-0.02 21.75,0.38z"/>
    <line fill="none" stroke="black" stroke-width="2" stroke-linecap="round" stroke-linejoin="round" stroke-miterlimit="2.61313" x1="231.58" y1="220.3" x2="232.58" y2= "232.93" />
   </g>
  </g>
 </g>
</svg>
