<?xml version="1.0" encoding="UTF-8"?>
<!DOCTYPE svg PUBLIC "-//W3C//DTD SVG 1.1//EN" "http://www.w3.org/Graphics/SVG/1.1/DTD/svg11.dtd">
<!-- Creator: CorelDRAW 2021 (64-Bit) -->
<svg xmlns="http://www.w3.org/2000/svg" xml:space="preserve" width="500px" height="500px" version="1.1" shape-rendering="geometricPrecision" text-rendering="geometricPrecision" image-rendering="optimizeQuality" fill-rule="evenodd" clip-rule="evenodd"
viewBox="0 0 500 500"
 xmlns:xlink="http://www.w3.org/1999/xlink"
 xmlns:xodm="http://www.corel.com/coreldraw/odm/2003">
 <g id="Layer_x0020_1" visibility="hidden">
  <metadata id="CorelCorpID_0Corel-Layer"/>
 </g>
 <g id="Layer_x0020_2">
  <metadata id="CorelCorpID_1Corel-Layer"/>
  <rect fill="none" x="-1.59" y="-1" width="500" height="500"/>
  <g id="_2059151696704">
   <path fill="#666666" stroke="black" stroke-width="2" stroke-linecap="round" stroke-linejoin="round" stroke-miterlimit="2.61313" d="M303.62 101.07l40.81 23.5c0,0 2.08,-38.19 -2.2,-50.75 0,0 -20.16,5.86 -38.61,27.25z"/>
   <path fill="#666666" stroke="black" stroke-width="2" stroke-linecap="round" stroke-linejoin="round" stroke-miterlimit="2.61313" d="M129.5 154.32c0,0 32,-23.91 33.06,-30.59 1.05,-6.69 -42.96,-21.97 -42.96,-21.97 0,0 -2.76,38.14 9.9,52.56z"/>
   <path fill="gray" d="M332.17 116.3c0,0 5.49,-9.97 7.43,-18.73 0.97,-4.36 -0.82,-21.68 1.91,-22.26 0.87,-0.18 1.14,6.21 1.94,13.7 1.15,10.85 0.78,24.18 0.01,33.79l-11.29 -6.5z"/>
   <path fill="gray" d="M136.85 147.33c0,0 -7.69,-7.79 -11.14,-16.08 -1.19,-2.86 -4.39,-27.54 -5.08,-27.97 -0.67,-0.41 -1.44,18.72 1.46,31.61 1.65,7.33 3.66,13.2 7.54,17.98l7.22 -5.54z"/>
  </g>
 </g>
</svg>
