<?xml version="1.0" encoding="UTF-8"?>
<!DOCTYPE svg PUBLIC "-//W3C//DTD SVG 1.1//EN" "http://www.w3.org/Graphics/SVG/1.1/DTD/svg11.dtd">
<!-- Creator: CorelDRAW 2021 (64-Bit) -->
<svg xmlns="http://www.w3.org/2000/svg" xml:space="preserve" width="500px" height="500px" version="1.1" shape-rendering="geometricPrecision" text-rendering="geometricPrecision" image-rendering="optimizeQuality" fill-rule="evenodd" clip-rule="evenodd"
viewBox="0 0 500 500"
 xmlns:xlink="http://www.w3.org/1999/xlink"
 xmlns:xodm="http://www.corel.com/coreldraw/odm/2003">
 <g id="Layer_x0020_1" visibility="hidden">
  <metadata id="CorelCorpID_0Corel-Layer"/>
 </g>
 <g id="Layer_x0020_2">
  <metadata id="CorelCorpID_1Corel-Layer"/>
  <rect fill="none" x="-1.59" y="-1" width="500" height="500"/>
  <g id="_1752574882032">
   <path fill="black" stroke="black" stroke-width="2" stroke-linecap="round" stroke-linejoin="round" stroke-miterlimit="2.61313" d="M167.3 160.25c0,0 18.72,-27.82 40.48,-0.06 0,0 13.87,17.14 -1.58,31.71 0,0 -11.15,9.83 -24.64,5.5 0,0 -17.55,-6.84 -17.49,-24.33 0,0 -0.43,-8.35 3.23,-12.82z"/>
   <path fill="black" stroke="black" stroke-width="2" stroke-linecap="round" stroke-linejoin="round" stroke-miterlimit="2.61313" d="M263.48 167.75c0,0 -2.11,-23.4 17.19,-30.94 0,0 16.85,-4.77 25.97,8.05 0,0 13.26,14.64 0.51,31.04 0,0 -9.51,12.35 -26.18,8.96 0,0 -17.09,-5.57 -17.49,-17.11z"/>
   <path fill="white" d="M190.39 178.16c0,0 6.35,-7.56 12.5,-1 0,0 7,6.83 -0.92,12.24 0,0 -6.2,4.64 -11.04,-1.52 0,0 -4.34,-3.2 -0.54,-9.72z"/>
   <ellipse fill="white" transform="matrix(0.340303 -0.0797673 0.0797673 0.340303 200.043 163.389)" rx="11.27" ry="11.19"/>
   <ellipse fill="white" transform="matrix(0.317612 -0.0744484 0.0744484 0.317612 176.976 163.377)" rx="8.86" ry="5.19"/>
   <ellipse fill="white" transform="matrix(0.317612 -0.0744484 0.0744484 0.317612 295.107 169.286)" rx="26.04" ry="24.6"/>
   <ellipse fill="white" transform="matrix(0.317612 -0.0744484 0.0744484 0.317612 297.642 149.792)" rx="10.5" ry="10.91"/>
   <ellipse fill="white" transform="matrix(0.317612 -0.0744484 0.0744484 0.317612 279.228 152.453)" rx="8.75" ry="6.79"/>
  </g>
 </g>
</svg>
