<?xml version="1.0" encoding="UTF-8"?>
<!DOCTYPE svg PUBLIC "-//W3C//DTD SVG 1.1//EN" "http://www.w3.org/Graphics/SVG/1.1/DTD/svg11.dtd">
<!-- Creator: CorelDRAW 2021 (64-Bit) -->
<svg xmlns="http://www.w3.org/2000/svg" xml:space="preserve" width="500px" height="500px" version="1.1" shape-rendering="geometricPrecision" text-rendering="geometricPrecision" image-rendering="optimizeQuality" fill-rule="evenodd" clip-rule="evenodd"
viewBox="0 0 500 500"
 xmlns:xlink="http://www.w3.org/1999/xlink"
 xmlns:xodm="http://www.corel.com/coreldraw/odm/2003">
 <g id="Layer_x0020_1" visibility="hidden">
  <metadata id="CorelCorpID_0Corel-Layer"/>
 </g>
 <g id="Layer_x0020_2">
  <metadata id="CorelCorpID_1Corel-Layer"/>
  <rect fill="none" x="-1.59" y="-1" width="500" height="500"/>
  <g id="_1717684076976">
   <ellipse fill="#CCCCCC" stroke="black" stroke-width="2.08" stroke-linecap="round" stroke-linejoin="round" stroke-miterlimit="2.61313" transform="matrix(0.197418 -0.0232182 0.0220573 0.187547 203.385 173.385)" rx="146.63" ry="140.16"/>
   <ellipse fill="#CCCCCC" stroke="black" stroke-width="2.08" stroke-linecap="round" stroke-linejoin="round" stroke-miterlimit="2.61313" transform="matrix(0.197418 -0.0232182 0.0220573 0.187547 274.234 164.937)" rx="146.63" ry="140.16"/>
   <circle fill="black" stroke="black" stroke-width="2.08" stroke-linecap="round" stroke-linejoin="round" stroke-miterlimit="2.61313" transform="matrix(0.226208 -0.0266042 0.025274 0.214898 205.459 171.588)" r="51.04"/>
   <circle fill="black" stroke="black" stroke-width="2.08" stroke-linecap="round" stroke-linejoin="round" stroke-miterlimit="2.61313" transform="matrix(0.226208 -0.0266042 0.025274 0.214898 275.522 164.32)" r="51.04"/>
   <ellipse fill="white" stroke="black" stroke-width="2.08" stroke-linecap="round" stroke-linejoin="round" stroke-miterlimit="2.61313" transform="matrix(0.303774 -0.0357267 0.0339404 0.288586 202.111 174.546)" rx="12.64" ry="11.82"/>
   <ellipse fill="white" stroke="black" stroke-width="2.08" stroke-linecap="round" stroke-linejoin="round" stroke-miterlimit="2.61313" transform="matrix(0.303774 -0.0357267 0.0339404 0.288586 272.857 166.619)" rx="12.64" ry="11.82"/>
   <ellipse fill="white" stroke="black" stroke-width="2.08" stroke-linecap="round" stroke-linejoin="round" stroke-miterlimit="2.61313" transform="matrix(0.168019 -0.0197606 0.0187726 0.159618 212.498 164.974)" rx="40.18" ry="36.08"/>
   <ellipse fill="white" stroke="black" stroke-width="2.08" stroke-linecap="round" stroke-linejoin="round" stroke-miterlimit="2.61313" transform="matrix(0.168019 -0.0197606 0.0187726 0.159618 282.903 156.992)" rx="40.18" ry="36.08"/>
  </g>
 </g>
</svg>
