<?xml version="1.0" encoding="UTF-8"?>
<!DOCTYPE svg PUBLIC "-//W3C//DTD SVG 1.1//EN" "http://www.w3.org/Graphics/SVG/1.1/DTD/svg11.dtd">
<!-- Creator: CorelDRAW 2021 (64-Bit) -->
<svg xmlns="http://www.w3.org/2000/svg" xml:space="preserve" width="500px" height="500px" version="1.1" shape-rendering="geometricPrecision" text-rendering="geometricPrecision" image-rendering="optimizeQuality" fill-rule="evenodd" clip-rule="evenodd"
viewBox="0 0 500 500"
 xmlns:xlink="http://www.w3.org/1999/xlink"
 xmlns:xodm="http://www.corel.com/coreldraw/odm/2003">
 <defs>
   <clipPath id="id0">
    <rect x="19.26" y="0.09" width="461.47" height="468.42"/>
   </clipPath>
 </defs>
 <g id="Layer_x0020_1" visibility="hidden">
  <metadata id="CorelCorpID_0Corel-Layer"/>
  <g clip-path="url(#id0)">
   <image x="19.26" y="0.09" width="461.47" height="468.41" xlink:href="1_Images\1_ImgID1.png"/>
  </g>
 </g>
 <g id="Layer_x0020_2">
  <metadata id="CorelCorpID_1Corel-Layer"/>
  <rect fill="none" y="-1" width="500" height="500"/>
  <g id="_2437521013248">
   <path fill="#FF6600" d="M182.35 419.51c0,0 32.17,17.1 40.12,-5.44 1.07,10.28 -3.03,25.6 -16.81,28.22 0,0 -14.46,0.34 -23.31,-22.78z"/>
   <path fill="#FF6600" d="M243.31 415.68c0,0 34.33,15.92 42.29,-6.62 1.06,10.28 -9.04,31.69 -23.31,32.65 0,0 -10.03,1.7 -18.98,-26.03z"/>
   <path fill="#FF6600" d="M120.16 325.77c-9.48,32.88 -18.6,69.48 9.4,91.77 18.54,-22.7 14.23,-77.31 -9.4,-91.77z"/>
   <path fill="#FF6600" d="M393.79 213.52c-2.05,-19.97 -8.28,-45.57 -21.74,-72.49 0,0 22.83,-65.7 -11.88,-99.66 0,0 -24.29,-4.82 -56.22,30.69 0,0 -29.7,-9.83 -46.36,-11.65 -36.53,57.4 49.74,163.62 136.2,153.11z"/>
   <path fill="#FF6600" d="M208.65 61.3c-7.45,-0.23 -26.49,1.3 -51.66,13.4 -1.47,0 -13.69,-18.51 -59.43,-35.09 0,0 -44.92,47.89 -6.55,103.33 0,0 -15.05,29.65 -18.23,73.66 66.4,-14.58 175.28,-70.39 135.87,-155.3z"/>
   <path fill="#FF6600" d="M335.77 417.75c14.27,-8.44 15.64,-21.7 15.66,-37.02 0.02,-16.59 -2.12,-56.25 -18.66,-85.64 -10.54,8.71 -29.74,13.48 -14.9,30.84 15.63,18.28 13.52,19.61 13.52,19.61 0,0 -19.23,49.62 -9.81,62 9.43,12.38 6.84,9.3 14.19,10.21z"/>
   <path fill="#FF6600" d="M160.51 294.98c2.16,-1.84 1.69,-7.22 7.22,-6.76 5.53,0.46 27.65,3.69 18.13,11.98 -9.52,8.3 -30.41,9.37 -30.57,2.61 -0.27,-11.93 2.41,-5.42 5.22,-7.83z"/>
   <path fill="#FF6600" d="M175.91 366.46c0,-1.85 4.61,-35.06 17.83,-17.84 13.23,17.22 22.45,13.84 22.45,13.84 0,0 28.6,16.91 -14.45,18.75 -43.05,1.85 -25.83,-14.75 -25.83,-14.75z"/>
   <path fill="#FF6600" d="M240.96 292.47c0,0 34.13,-8 35.06,8.61 0.92,16.6 -16.92,5.53 -23.37,10.14 -6.46,4.62 -24.91,42.75 -31.37,19.07 -6.46,-23.68 -2.46,-35.98 0,-37.82 2.46,-1.85 7.38,-4.92 19.68,0z"/>
   <path fill="#FF6600" d="M406.97 339.32c0,0 -1.76,-22.74 23.58,-13.66 0,0 3.7,1.36 1.65,14.79 -2.06,13.43 -24.09,4.21 -25.23,-1.13z"/>
  </g>
 </g>
</svg>
