<?xml version="1.0" encoding="UTF-8"?>
<!DOCTYPE svg PUBLIC "-//W3C//DTD SVG 1.1//EN" "http://www.w3.org/Graphics/SVG/1.1/DTD/svg11.dtd">
<!-- Creator: CorelDRAW 2021 (64-Bit) -->
<svg xmlns="http://www.w3.org/2000/svg" xml:space="preserve" width="500px" height="500px" version="1.1" shape-rendering="geometricPrecision" text-rendering="geometricPrecision" image-rendering="optimizeQuality" fill-rule="evenodd" clip-rule="evenodd"
viewBox="0 0 500 500"
 xmlns:xlink="http://www.w3.org/1999/xlink"
 xmlns:xodm="http://www.corel.com/coreldraw/odm/2003">
 <defs>
   <clipPath id="id0">
    <rect x="19.26" y="0.09" width="461.47" height="468.42"/>
   </clipPath>
 </defs>
 <g id="Layer_x0020_1" visibility="hidden">
  <metadata id="CorelCorpID_0Corel-Layer"/>
  <g clip-path="url(#id0)">
   <image x="19.26" y="0.09" width="461.47" height="468.41" xlink:href="10_Images\10_ImgID1.png"/>
  </g>
 </g>
 <g id="Layer_x0020_2">
  <metadata id="CorelCorpID_1Corel-Layer"/>
  <rect fill="none" y="-1" width="500" height="500"/>
  <g id="_1752439142928">
   <path fill="gray" d="M245.29 420.96c32.95,8.34 31.1,-5.66 39.49,-5.77 0.39,0 -0.96,3.87 -2,7.19 -2.23,7.17 -9.17,17.92 -18.56,19.32 -0.04,0 -6.58,1.32 -12.15,-6.49 -1.41,-1.98 -6.25,-12.8 -6.78,-14.25z"/>
   <path fill="gray" d="M182.98 420.94c27.1,13.16 38.17,-18.41 39.62,-10.01 2.89,16.68 -7.33,31.05 -17.52,31.32 -1.49,0.28 -15.19,-2.79 -22.1,-21.31z"/>
   <path fill="gray" d="M111.92 383.59c-0.69,-5.96 -0.78,-11.54 0.03,-17.94 0,0 0.42,-27.67 13.8,-55.65l12.08 4.41c0,0 46.52,11.29 -9.12,18.3 0,0 -5.31,6.14 1.49,6.02 6.8,-0.11 46.28,0.41 42.38,8.95 -3.89,8.53 -50.06,12.96 -50.06,12.96 0,0 -5.31,6.15 0.13,6.05 5.44,-0.09 27.23,0.74 20.59,8.11 -3.53,3.92 -23.79,7.75 -31.32,8.79z"/>
   <polygon fill="gray" points="391.9,361.98 409.24,383.73 413.69,381.24 395.41,358.14 "/>
   <polygon fill="gray" points="381.12,370.81 392.25,390.37 398.49,388.39 386.77,366.5 "/>
   <polygon fill="gray" points="399.75,352.6 421.55,375.71 426.46,370.96 403.03,346.2 "/>
   <path fill="gray" d="M410.54 341.6c0,0 30.54,8.75 28.2,-7.24l-3.94 -5.93 -6.42 -4.32c-1.45,-0.97 -11.12,-1.83 -15.93,0.26 -2.33,1.01 -4.12,4.41 -4.48,5.59 -0.24,0.8 -0.25,2.06 0.07,3.56 0.5,2.37 1.74,5.34 2.5,8.08z"/>
   <path fill="gray" d="M350.91 383.03c0.32,-5.24 0.26,-12.13 -0.45,-18.33 0,0 0.16,-26.36 -11.12,-55.54 -19.72,6.1 -51.76,9.47 -2.17,22.18 0,0 4.54,6.76 -2.2,5.79 -6.73,-0.97 -45.95,-5.39 -43.1,3.58 2.84,8.96 48.12,19.14 48.12,19.14 0,0 4.53,6.76 -0.85,5.99 -5.39,-0.78 -27.11,-2.68 -21.39,5.47 5.52,7.89 23.06,9.01 33.16,11.72z"/>
   <path fill="gray" d="M213.59 61.19c3.04,-0.32 -1.15,-14.19 -2.85,-17.82 -1.06,-2.25 9.14,3.05 13.5,7.03 3.5,3.2 2.06,3.32 6.86,5.53 3.27,1.52 1.9,-2.79 11.62,-8.51 3.91,-2.3 3.13,11.57 5.09,11.65l-7.33 8.05c45.61,3.97 33.59,11.83 33.59,11.83 0,0 -33.16,-0.17 -31.8,6.6 1.36,6.78 25.45,6.41 25.45,6.41 -0.77,7.39 -24.11,4.52 -24.11,4.52 0,0 -4.93,-2.18 -7.58,19.11 -2.66,21.28 -9.75,-8.08 -9.75,-8.08 0,0 -0.09,-14.94 -14.14,-11.44 -14.06,3.5 -14.21,-6.89 -14.21,-6.89 0,0 12.09,3.35 18.94,-2.57 6.84,-5.91 0.9,-8.61 0.9,-8.61 0,0 -34.39,-0.3 -31.99,-3.37 2.4,-3.06 25.1,-6.06 32.57,-6.11 7.47,-0.04 0.1,-6.33 0.1,-6.33l-4.86 -1z"/>
  </g>
 </g>
</svg>
