<?xml version="1.0" encoding="UTF-8"?>
<!DOCTYPE svg PUBLIC "-//W3C//DTD SVG 1.1//EN" "http://www.w3.org/Graphics/SVG/1.1/DTD/svg11.dtd">
<!-- Creator: CorelDRAW 2021 (64-Bit) -->
<svg xmlns="http://www.w3.org/2000/svg" xml:space="preserve" width="500px" height="500px" version="1.1" shape-rendering="geometricPrecision" text-rendering="geometricPrecision" image-rendering="optimizeQuality" fill-rule="evenodd" clip-rule="evenodd"
viewBox="0 0 500 500"
 xmlns:xlink="http://www.w3.org/1999/xlink"
 xmlns:xodm="http://www.corel.com/coreldraw/odm/2003">
 <defs>
   <clipPath id="id0">
    <rect x="19.26" y="0.09" width="461.47" height="468.42"/>
   </clipPath>
 </defs>
 <g id="Layer_x0020_1" visibility="hidden">
  <metadata id="CorelCorpID_0Corel-Layer"/>
  <g clip-path="url(#id0)">
   <image x="19.26" y="0.09" width="461.47" height="468.41" xlink:href="4_Images\4_ImgID1.png"/>
  </g>
 </g>
 <g id="Layer_x0020_2">
  <metadata id="CorelCorpID_1Corel-Layer"/>
  <rect fill="none" y="-1" width="500" height="500"/>
  <g>
   <path fill="white" d="M134.03 281.18c0,0 -78.63,150.07 34.82,150.67l15.72 -0.1c0,0 19.9,31.93 39.1,0.94l22.49 -0.11c0,0 13.51,30.07 36.53,-0.67 0,0 66.01,4.78 71.59,-34.71 0.09,-0.64 0.16,-1.29 0.22,-1.95 0,0 0.51,-5.57 0.55,-14.52 0.11,-24.35 -3.29,-73.65 -30.11,-103.32 0,0 37.58,-5.64 49.87,-34.38 0,0 8.36,12.02 6.01,19.07 0,0 8.62,-12.02 3.13,-31.1 0,0 15.42,20.39 13.07,25.88 0,0 10.97,-53.28 -20.32,-115.85 0,0 22.62,-68.95 -14.71,-103.52 0,0 -28.7,-4.84 -59.46,30.42 0,0 -36.64,-13.13 -50.81,-11.41 0,0 -14.18,-4.14 4.14,-16.59 0,0 -16.59,0.35 -24.54,12.45 0,0 -10.71,-15.9 -29.38,-13.14 0,0 12.1,12.1 9.68,18.67 0,0 -18.53,-4.5 -54.48,12.79 0,0 -13.48,-19.81 -61.32,-35.26 0,0 -47.7,49.78 -8.99,107.5 0,0 -22.5,45.4 -18.13,106.22 0,0 2.78,-15.1 10.73,-16.3 0,0 -4.77,29.82 0.4,46.91 0,0 13.15,-24.65 28.71,-9.09 15.55,15.56 25.49,10.5 25.49,10.5zm221.11 99.64c0,0 41.12,-16.6 46.02,-42.14 0,0 -0.94,-21.75 21.75,-20.03 22.7,1.72 23.73,28.03 23.73,28.03 0,0 -15.84,56.37 -92.36,50.52l0.86 -16.38zm-181.7 27.59c0,0 6.4,17.24 10.97,23.34l-10.97 -23.34zm52.91 0.79c0,0 1.24,12.65 -2.68,23.49l2.68 -23.49zm11.62 1.3c0,0 2.86,12.26 8.19,22.08l-8.19 -22.08zm51.99 -2.48c0,0 -0.87,13.96 -7.27,23.89l7.27 -23.89z"/>
   <path id="_1" fill="none" stroke="black" stroke-width="8" stroke-linecap="round" stroke-linejoin="round" stroke-miterlimit="2.61313" d="M134.03 281.18c0,0 -78.63,150.07 34.82,150.67l15.72 -0.1c0,0 19.9,31.93 39.1,0.94l22.49 -0.11c0,0 13.51,30.07 36.53,-0.67 0,0 66.01,4.78 71.59,-34.71 0.09,-0.64 0.16,-1.29 0.22,-1.95 0,0 0.51,-5.57 0.55,-14.52 0.11,-24.35 -3.29,-73.65 -30.11,-103.32 0,0 37.58,-5.64 49.87,-34.38 0,0 8.36,12.02 6.01,19.07 0,0 8.62,-12.02 3.13,-31.1 0,0 15.42,20.39 13.07,25.88 0,0 10.97,-53.28 -20.32,-115.85 0,0 22.62,-68.95 -14.71,-103.52 0,0 -28.7,-4.84 -59.46,30.42 0,0 -36.64,-13.13 -50.81,-11.41 0,0 -14.18,-4.14 4.14,-16.59 0,0 -16.59,0.35 -24.54,12.45 0,0 -10.71,-15.9 -29.38,-13.14 0,0 12.1,12.1 9.68,18.67 0,0 -18.53,-4.5 -54.48,12.79 0,0 -13.48,-19.81 -61.32,-35.26 0,0 -47.7,49.78 -8.99,107.5 0,0 -22.5,45.4 -18.13,106.22 0,0 2.78,-15.1 10.73,-16.3 0,0 -4.77,29.82 0.4,46.91 0,0 13.15,-24.65 28.71,-9.09 15.55,15.56 25.49,10.5 25.49,10.5zm221.11 99.64c0,0 41.12,-16.6 46.02,-42.14 0,0 -0.94,-21.75 21.75,-20.03 22.7,1.72 23.73,28.03 23.73,28.03 0,0 -15.84,56.37 -92.36,50.52m-180.84 11.21c0,0 6.4,17.24 10.97,23.34m41.94 -22.55c0,0 1.24,12.65 -2.68,23.49m14.3 -22.19c0,0 2.86,12.26 8.19,22.08m43.8 -24.56c0,0 -0.87,13.96 -7.27,23.89"/>
  </g>
 </g>
</svg>
