<?xml version="1.0" encoding="UTF-8"?>
<!DOCTYPE svg PUBLIC "-//W3C//DTD SVG 1.1//EN" "http://www.w3.org/Graphics/SVG/1.1/DTD/svg11.dtd">
<!-- Creator: CorelDRAW 2021 (64-Bit) -->
<svg xmlns="http://www.w3.org/2000/svg" xml:space="preserve" width="500px" height="500px" version="1.1" shape-rendering="geometricPrecision" text-rendering="geometricPrecision" image-rendering="optimizeQuality" fill-rule="evenodd" clip-rule="evenodd"
viewBox="0 0 500 500"
 xmlns:xlink="http://www.w3.org/1999/xlink"
 xmlns:xodm="http://www.corel.com/coreldraw/odm/2003">
 <defs>
   <clipPath id="id0">
    <rect x="-566.65" y="7.11" width="400" height="400"/>
   </clipPath>
   <clipPath id="id1">
    <rect x="-929.46" y="504.95" width="601.63" height="601.63"/>
   </clipPath>
 </defs>
 <g id="sampel" visibility="hidden">
  <metadata id="CorelCorpID_0Corel-Layer"/>
  <g clip-path="url(#id0)">
   <image x="-566.65" y="7.11" width="400" height="400" xlink:href="2_Images\2_ImgID1.png"/>
  </g>
  <g clip-path="url(#id1)">
   <image x="-929.46" y="504.95" width="601.63" height="601.63" xlink:href="2_Images\2_ImgID2.png"/>
  </g>
  <ellipse fill="#F7B813" stroke="black" stroke-width="2" stroke-linecap="round" stroke-linejoin="round" stroke-miterlimit="2.61313" cx="8.46" cy="626.35" rx="34.16" ry="33.24"/>
  <ellipse fill="#E96300" stroke="black" stroke-width="2" stroke-linecap="round" stroke-linejoin="round" stroke-miterlimit="2.61313" cx="99.01" cy="628.56" rx="34.16" ry="33.24"/>
  <ellipse fill="#FFD952" stroke="black" stroke-width="2" stroke-linecap="round" stroke-linejoin="round" stroke-miterlimit="2.61313" cx="192.41" cy="626.96" rx="34.16" ry="33.24"/>
  <ellipse fill="#E98700" stroke="black" stroke-width="2" stroke-linecap="round" stroke-linejoin="round" stroke-miterlimit="2.61313" cx="287.41" cy="624.57" rx="34.16" ry="33.24"/>
  <ellipse fill="#FFED8B" stroke="black" stroke-width="2" stroke-linecap="round" stroke-linejoin="round" stroke-miterlimit="2.61313" cx="384.78" cy="621.19" rx="34.16" ry="33.24"/>
  <ellipse fill="#E3B085" stroke="black" stroke-width="2" stroke-linecap="round" stroke-linejoin="round" stroke-miterlimit="2.61313" cx="486.71" cy="621.19" rx="34.16" ry="33.24"/>
  <ellipse fill="#B11914" stroke="black" stroke-width="2" stroke-linecap="round" stroke-linejoin="round" stroke-miterlimit="2.61313" cx="13.15" cy="746.61" rx="42.31" ry="40.8"/>
  <ellipse fill="#B11914" stroke="black" stroke-width="2" stroke-linecap="round" stroke-linejoin="round" stroke-miterlimit="2.61313" cx="124.62" cy="743.75" rx="42.31" ry="40.8"/>
 </g>
 <g id="Layer_x0020_1">
  <metadata id="CorelCorpID_1Corel-Layer"/>
  <rect fill="none" x="1.89" y="-0.62" width="500" height="500"/>
  <g id="_1565473558896">
   <ellipse fill="#FFED8B" cx="237.13" cy="227.64" rx="40.18" ry="35.59"/>
   <path fill="black" stroke="black" stroke-width="2" stroke-linecap="round" stroke-linejoin="round" stroke-miterlimit="2.61313" d="M238.3 212.24c0,0 35.06,-11.6 25.62,-22.37 0,0 -6.43,-8.69 -27.93,-5.66 0,0 -27.01,0.97 -26.02,9.64 0,0 0.02,2.55 2.93,5.82 3.44,3.86 9.15,9.71 25.4,12.57z"/>
   <path fill="white" stroke="black" stroke-width="2" stroke-linecap="round" stroke-linejoin="round" stroke-miterlimit="2.61313" d="M219.88 192.58c0,0 0.05,-8.15 22.33,-5.64 0,0 6.23,1.11 3.28,4.86 0,0 -16.48,2.55 -21.31,3.99 0,0 -4.41,-0.16 -4.3,-3.21z"/>
   <g>
    <path fill="#E3B085" stroke="black" stroke-width="2" stroke-linecap="round" stroke-linejoin="round" stroke-miterlimit="2.61313" d="M206.99 218.65c0,0 0.62,-3.16 5.16,-5.17l-5.16 5.17z"/>
    <g>
     <path fill="#E3B085" d="M209.57 216.07c0,0 4.62,4.13 10.08,6.26l-10.08 -6.26zm47.77 5.03c-1.64,25.08 -19.1,26.89 -19.1,26.89 -16.65,-0.12 -18.59,-25.65 -18.59,-25.65 5.63,2.21 12.94,3.06 19.39,-2.69 0,0 7.87,6.52 18.3,1.45zm0 0c2.29,-1.12 4.85,-2.86 7.34,-5.29l-7.34 5.29z"/>
     <path id="_1" fill="none" stroke="black" stroke-width="2" stroke-linecap="round" stroke-linejoin="round" stroke-miterlimit="2.61313" d="M209.57 216.07c0,0 4.62,4.13 10.08,6.26m37.69 -1.23c-1.64,25.08 -19.1,26.89 -19.1,26.89 -16.65,-0.12 -18.59,-25.65 -18.59,-25.65 5.63,2.21 12.94,3.06 19.39,-2.69 0,0 7.87,6.52 18.3,1.45zm0 0c2.29,-1.12 4.85,-2.86 7.34,-5.29"/>
    </g>
    <path fill="none" stroke="black" stroke-width="2" stroke-linecap="round" stroke-linejoin="round" stroke-miterlimit="2.61313" d="M263.31 212.95c0,0 0.51,1.41 1.37,2.86m0 0c0.69,1.17 1.6,2.35 2.63,2.84"/>
   </g>
  </g>
 </g>
</svg>
