<?xml version="1.0" encoding="UTF-8"?>
<!DOCTYPE svg PUBLIC "-//W3C//DTD SVG 1.1//EN" "http://www.w3.org/Graphics/SVG/1.1/DTD/svg11.dtd">
<!-- Creator: CorelDRAW 2021 (64-Bit) -->
<svg xmlns="http://www.w3.org/2000/svg" xml:space="preserve" width="500px" height="500px" version="1.1" shape-rendering="geometricPrecision" text-rendering="geometricPrecision" image-rendering="optimizeQuality" fill-rule="evenodd" clip-rule="evenodd"
viewBox="0 0 500 500"
 xmlns:xlink="http://www.w3.org/1999/xlink"
 xmlns:xodm="http://www.corel.com/coreldraw/odm/2003">
 <defs>
   <clipPath id="id0">
    <rect x="-566.65" y="7.11" width="400" height="400"/>
   </clipPath>
   <clipPath id="id1">
    <rect x="-929.46" y="504.95" width="601.63" height="601.63"/>
   </clipPath>
 </defs>
 <g id="sampel" visibility="hidden">
  <metadata id="CorelCorpID_0Corel-Layer"/>
  <g clip-path="url(#id0)">
   <image x="-566.65" y="7.11" width="400" height="400" xlink:href="3_Images\3_ImgID1.png"/>
  </g>
  <g clip-path="url(#id1)">
   <image x="-929.46" y="504.95" width="601.63" height="601.63" xlink:href="3_Images\3_ImgID2.png"/>
  </g>
  <ellipse fill="#F7B813" stroke="black" stroke-width="2" stroke-linecap="round" stroke-linejoin="round" stroke-miterlimit="2.61313" cx="8.46" cy="626.35" rx="34.16" ry="33.24"/>
  <ellipse fill="#E96300" stroke="black" stroke-width="2" stroke-linecap="round" stroke-linejoin="round" stroke-miterlimit="2.61313" cx="99.01" cy="628.56" rx="34.16" ry="33.24"/>
  <ellipse fill="#FFD952" stroke="black" stroke-width="2" stroke-linecap="round" stroke-linejoin="round" stroke-miterlimit="2.61313" cx="192.41" cy="626.96" rx="34.16" ry="33.24"/>
  <ellipse fill="#E98700" stroke="black" stroke-width="2" stroke-linecap="round" stroke-linejoin="round" stroke-miterlimit="2.61313" cx="287.41" cy="624.57" rx="34.16" ry="33.24"/>
  <ellipse fill="#FFED8B" stroke="black" stroke-width="2" stroke-linecap="round" stroke-linejoin="round" stroke-miterlimit="2.61313" cx="384.78" cy="621.19" rx="34.16" ry="33.24"/>
  <ellipse fill="#E3B085" stroke="black" stroke-width="2" stroke-linecap="round" stroke-linejoin="round" stroke-miterlimit="2.61313" cx="486.71" cy="621.19" rx="34.16" ry="33.24"/>
  <ellipse fill="#B11914" stroke="black" stroke-width="2" stroke-linecap="round" stroke-linejoin="round" stroke-miterlimit="2.61313" cx="13.15" cy="746.61" rx="42.31" ry="40.8"/>
  <ellipse fill="#B11914" stroke="black" stroke-width="2" stroke-linecap="round" stroke-linejoin="round" stroke-miterlimit="2.61313" cx="124.62" cy="743.75" rx="42.31" ry="40.8"/>
 </g>
 <g id="Layer_x0020_1">
  <metadata id="CorelCorpID_1Corel-Layer"/>
  <rect fill="none" x="1.89" y="-0.62" width="500" height="500"/>
  <g id="_2099512307344">
   <g>
    <path fill="black" stroke="black" stroke-width="2" stroke-linecap="round" stroke-linejoin="round" stroke-miterlimit="2.61313" d="M244.07 213c0,0 24.21,-8.7 17.45,-16.03 0,0 -4.63,-5.95 -19.55,-3.46 0,0 -18.8,1.15 -17.96,7.17 0,0 0.06,1.78 2.14,4.01 2.47,2.63 6.55,6.6 17.92,8.31z"/>
    <path fill="white" stroke="black" stroke-width="2" stroke-linecap="round" stroke-linejoin="round" stroke-miterlimit="2.61313" d="M228.24 198.79c0,0 0.7,-8.13 22.71,-3.85 0,0 6.12,1.6 2.89,5.1 0,0 -16.63,1.24 -21.56,2.28 0,0 -4.39,-0.5 -4.04,-3.53z"/>
    <path fill="#FF9999" stroke="black" stroke-width="2" stroke-linecap="round" stroke-linejoin="round" stroke-miterlimit="2.61313" d="M213.33 223.75c0,0 0.87,-3.1 5.55,-4.74l-5.55 4.74z"/>
    <g>
     <path fill="#BC4B47" d="M216.11 221.38c0,0 4.27,4.49 9.54,7.05l-9.54 -7.05zm47.22 8.81c-3.63,24.87 -21.18,25.29 -21.18,25.29 -16.58,-1.44 -16.5,-27.04 -16.5,-27.04 5.44,2.64 12.66,4.07 19.55,-1.15 0,0 7.32,7.13 18.13,2.9zm0 0c2.37,-0.93 5.06,-2.47 7.73,-4.69l-7.73 4.69z"/>
     <path id="_1" fill="none" stroke="black" stroke-width="2" stroke-linecap="round" stroke-linejoin="round" stroke-miterlimit="2.61313" d="M216.11 221.38c0,0 4.27,4.49 9.54,7.05m37.68 1.76c-3.63,24.87 -21.18,25.29 -21.18,25.29 -16.58,-1.44 -16.5,-27.04 -16.5,-27.04 5.44,2.64 12.66,4.07 19.55,-1.15 0,0 7.32,7.13 18.13,2.9zm0 0c2.37,-0.93 5.06,-2.47 7.73,-4.69"/>
    </g>
    <path fill="none" stroke="black" stroke-width="2" stroke-linecap="round" stroke-linejoin="round" stroke-miterlimit="2.61313" d="M269.92 222.54c0,0 0.4,1.45 1.14,2.96m0 0c0.6,1.22 1.41,2.47 2.4,3.04"/>
    <path fill="#FF9FA0" d="M255.57 247.03c-8.91,8.52 -13.35,7.51 -13.35,7.51 -5.84,-0.51 -8.45,-3.71 -11.24,-7.94 12.68,-13.92 24.33,-0.02 24.59,0.43z"/>
    <line fill="none" stroke="black" stroke-width="2" stroke-linecap="round" stroke-linejoin="round" stroke-miterlimit="2.61313" x1="244.07" y1="213" x2="245.2" y2= "227.29" />
   </g>
  </g>
 </g>
</svg>
