<?xml version="1.0" encoding="UTF-8"?>
<!DOCTYPE svg PUBLIC "-//W3C//DTD SVG 1.1//EN" "http://www.w3.org/Graphics/SVG/1.1/DTD/svg11.dtd">
<!-- Creator: CorelDRAW 2021 (64-Bit) -->
<svg xmlns="http://www.w3.org/2000/svg" xml:space="preserve" width="500px" height="500px" version="1.1" shape-rendering="geometricPrecision" text-rendering="geometricPrecision" image-rendering="optimizeQuality" fill-rule="evenodd" clip-rule="evenodd"
viewBox="0 0 500 500"
 xmlns:xlink="http://www.w3.org/1999/xlink"
 xmlns:xodm="http://www.corel.com/coreldraw/odm/2003">
 <g id="sampel">
  <metadata id="CorelCorpID_0Corel-Layer"/>
 </g>
 <g id="Layer_x0020_1">
  <metadata id="CorelCorpID_1Corel-Layer"/>
  <rect fill="none" x="1.89" y="-0.62" width="500" height="500"/>
  <g id="_1784011832224">
   <g>
    <path fill="none" stroke="black" stroke-width="2" stroke-linecap="round" stroke-linejoin="round" stroke-miterlimit="2.61313" d="M221.32 204.38c0,0 0.86,0.37 2.19,0.73 1.35,0.36 3.17,0.7 5.13,0.64 0,0 1.41,29.44 9.59,31.91 4.09,1.23 6.9,-6.48 8.69,-14.5 1.79,-8.02 2.57,-16.35 2.57,-16.35 -7.2,-0.31 -10.89,-8.22 -10.89,-8.22 -2.18,5.5 -6.3,7.04 -9.96,7.16m20.85 1.06c2.04,0.08 4.37,-0.44 6.97,-1.94"/>
    <path fill="#FF9966" d="M229.69 206.67c0,0 5.76,-0.11 8.99,-5.92 0,0 3.47,5.94 9.8,6.97 0,0 -2.77,28.81 -9.39,29.13 0,0 -7.14,1.15 -9.4,-30.18z"/>
   </g>
   <path fill="#FFCC99" d="M232.7 226.96c0,0 6.8,-7.67 12.39,0.12 0,0 -1.52,7.99 -5.7,9.88 -1.12,0 -4.28,-0.87 -6.69,-10z"/>
  </g>
 </g>
</svg>
