<?xml version="1.0" encoding="UTF-8"?>
<!DOCTYPE svg PUBLIC "-//W3C//DTD SVG 1.1//EN" "http://www.w3.org/Graphics/SVG/1.1/DTD/svg11.dtd">
<!-- Creator: CorelDRAW 2021 (64-Bit) -->
<svg xmlns="http://www.w3.org/2000/svg" xml:space="preserve" width="1.66666in" height="1.66666in" version="1.1" style="shape-rendering:geometricPrecision; text-rendering:geometricPrecision; image-rendering:optimizeQuality; fill-rule:evenodd; clip-rule:evenodd"
viewBox="0 0 1666.66 1666.66"
 xmlns:xlink="http://www.w3.org/1999/xlink"
 xmlns:xodm="http://www.corel.com/coreldraw/odm/2003">
 <defs>
  <style type="text/css">
   <![CDATA[
    .str0 {stroke:black;stroke-width:41.67;stroke-linecap:round;stroke-linejoin:round;stroke-miterlimit:2.61313}
    .fil0 {fill:none}
    .fil1 {fill:#FF9999}
   ]]>
  </style>
 </defs>
 <g id="Layer_x0020_1">
  <metadata id="CorelCorpID_0Corel-Layer"/>
  <rect class="fil0" x="6.32" y="-2.06" width="1666.67" height="1666.67"/>
  <g id="_2853883735424">
   <path class="fil1 str0" d="M1261.99 1337.15c-51.4,21.99 -43.27,150.67 -369.23,128.23l-8.98 -2c0,0 -16.12,35.81 -61.09,25.93 -44.98,-9.88 -45.5,-40.26 -45.5,-40.26l-111.73 -0.63c0,0 -7.74,45.31 -61.26,49.31 -53.52,4 -62.43,-51.14 -62.43,-51.14 0,0 -207.69,46.19 -257,-97.22 -49.31,-143.41 106.59,-389.56 106.59,-389.56 0,0 -104.92,-53.07 -119,-135.48 0,0 -11.32,-55.14 1.72,-106.36 0,0 -60.1,-23.82 -65.94,-39.81 -5.84,-15.99 86.55,-6.52 86.55,-6.52 0,0 -72.2,-59.74 -59.73,-76.02 12.47,-16.28 66.49,10.11 66.49,10.11 0,0 8.96,-56.97 35.06,-97.76 0,0 -64.89,-266.22 -19.44,-333.22 0,0 49.06,-48.83 187.84,110.98 0,0 68.22,-14.89 160.29,-5.75 0,0 109.93,-61.03 111.99,-72.13 0,0 23.36,0.33 0,70.82 0,0 32.91,-29.17 50.84,-32 0,0 -5.28,16.91 0,39.06 0,0 71.31,-18.7 179.99,9.1 0,0 107.53,-144.49 186.85,-129.08 79.32,15.41 -3.06,308.79 -3.06,308.79 0,0 57.58,96.37 49.35,117.21l63.82 1.99c0,0 -3.59,29.07 -49.63,63.02 -46.04,33.95 66.66,10.12 66.66,10.12 0,0 29.65,0.71 -53.33,57.4 0,0 3.46,142.33 -118.94,217.09 0,0 152.17,277.74 108.83,311.23 -5.33,4.12 -4.7,5.51 0.01,4.4 26.21,-6.16 178.69,-89.62 131.85,-209.8 -55.8,-143.17 -51.75,-189.83 -51.75,-189.83 0,0 6.42,-82.28 130.05,-68.03 123.64,14.25 15.25,198.71 15.25,198.71 0,0 40.94,287.86 -217.84,347.6 -1.43,0.42 -2.81,0.93 -4.14,1.5z"/>
   <path class="fil0 str0" d="M683.02 1365.44c0,0 -5.56,59.01 -17.56,79.64"/>
   <path class="fil0 str0" d="M520.62 1358.04c0,0 1.79,55.96 21.71,91.23"/>
   <path class="fil0 str0" d="M756.74 1366.22c0,0 -3.33,30.04 20.45,82.83"/>
   <path class="fil0 str0" d="M917.39 1362.78c0,0 9.64,16.54 -31.25,102.83"/>
  </g>
 </g>
</svg>
