<?xml version="1.0" encoding="UTF-8"?>
<!DOCTYPE svg PUBLIC "-//W3C//DTD SVG 1.1//EN" "http://www.w3.org/Graphics/SVG/1.1/DTD/svg11.dtd">
<!-- Creator: CorelDRAW 2021 (64-Bit) -->
<svg xmlns="http://www.w3.org/2000/svg" xml:space="preserve" width="500px" height="500px" version="1.1" style="shape-rendering:geometricPrecision; text-rendering:geometricPrecision; image-rendering:optimizeQuality; fill-rule:evenodd; clip-rule:evenodd"
viewBox="0 0 500 500"
 xmlns:xlink="http://www.w3.org/1999/xlink"
 xmlns:xodm="http://www.corel.com/coreldraw/odm/2003">
 <defs>
  <style type="text/css">
   <![CDATA[
    .str0 {stroke:black;stroke-width:12.5;stroke-linecap:round;stroke-linejoin:round;stroke-miterlimit:2.61313}
    .fil0 {fill:none}
    .fil1 {fill:#FFCC00}
   ]]>
  </style>
 </defs>
 <g id="Layer_x0020_1">
  <metadata id="CorelCorpID_0Corel-Layer"/>
  <rect class="fil0" x="1.89" y="-0.62" width="500" height="500"/>
  <g id="_2295475723536">
   <path class="fil1 str0" d="M378.6 401.14c-15.42,6.6 -12.98,45.2 -110.77,38.47l-2.7 -0.6c0,0 -4.83,10.75 -18.32,7.78 -13.5,-2.96 -13.65,-12.07 -13.65,-12.07l-33.52 -0.19c0,0 -2.32,13.59 -18.38,14.79 -16.06,1.2 -18.73,-15.34 -18.73,-15.34 0,0 -62.31,13.85 -77.1,-29.17 -14.8,-43.02 31.98,-116.87 31.98,-116.87 0,0 -31.48,-15.92 -35.7,-40.64 0,0 -3.4,-16.54 0.51,-31.91 0,0 -18.03,-7.15 -19.78,-11.94 -1.75,-4.8 25.97,-1.96 25.97,-1.96 0,0 -21.66,-17.92 -17.92,-22.81 3.74,-4.88 19.94,3.04 19.94,3.04 0,0 2.69,-17.09 10.52,-29.33 0,0 -19.47,-79.87 -5.83,-99.97 0,0 14.72,-14.64 56.35,33.3 0,0 20.47,-4.47 48.09,-1.72 0,0 32.98,-18.31 33.6,-21.64 0,0 7,0.1 0,21.24 0,0 9.87,-8.75 15.25,-9.6 0,0 -1.59,5.08 0,11.72 0,0 21.39,-5.61 53.99,2.73 0,0 32.26,-43.35 56.06,-38.72 23.8,4.62 -0.92,92.63 -0.92,92.63 0,0 17.28,28.92 14.81,35.17l19.14 0.59c0,0 -1.07,8.72 -14.89,18.91 -13.81,10.18 20,3.03 20,3.03 0,0 8.9,0.22 -16,17.22 0,0 1.04,42.7 -35.68,65.13 0,0 45.65,83.32 32.65,93.37 -1.6,1.23 -1.41,1.65 0,1.32 7.87,-1.85 53.61,-26.89 39.56,-62.94 -16.74,-42.95 -15.53,-56.95 -15.53,-56.95 0,0 1.93,-24.68 39.02,-20.41 37.09,4.28 4.57,59.62 4.57,59.62 0,0 12.28,86.36 -65.35,104.28 -0.43,0.12 -0.84,0.27 -1.24,0.44z"/>
   <path class="fil0 str0" d="M204.91 409.63c0,0 -1.67,17.71 -5.27,23.89"/>
   <path class="fil0 str0" d="M156.19 407.41c0,0 0.53,16.79 6.51,27.37"/>
   <path class="fil0 str0" d="M227.02 409.87c0,0 -1,9.01 6.14,24.85"/>
   <path class="fil0 str0" d="M275.22 408.84c0,0 2.89,4.96 -9.38,30.85"/>
  </g>
 </g>
</svg>
