<?xml version="1.0" encoding="UTF-8"?>
<!DOCTYPE svg PUBLIC "-//W3C//DTD SVG 1.1//EN" "http://www.w3.org/Graphics/SVG/1.1/DTD/svg11.dtd">
<!-- Creator: CorelDRAW 2021 (64-Bit) -->
<svg xmlns="http://www.w3.org/2000/svg" xml:space="preserve" width="500px" height="500px" version="1.1" shape-rendering="geometricPrecision" text-rendering="geometricPrecision" image-rendering="optimizeQuality" fill-rule="evenodd" clip-rule="evenodd"
viewBox="0 0 500 500"
 xmlns:xlink="http://www.w3.org/1999/xlink"
 xmlns:xodm="http://www.corel.com/coreldraw/odm/2003">
 <defs>
   <clipPath id="id0">
    <rect x="19.26" y="0.09" width="461.47" height="468.42"/>
   </clipPath>
 </defs>
 <g id="Layer_x0020_1" visibility="hidden">
  <metadata id="CorelCorpID_0Corel-Layer"/>
  <g clip-path="url(#id0)">
   <image x="19.26" y="0.09" width="461.47" height="468.41" xlink:href="5_Images\5_ImgID1.png"/>
  </g>
 </g>
 <g id="Layer_x0020_2">
  <metadata id="CorelCorpID_1Corel-Layer"/>
  <rect fill="none" y="-1" width="500" height="500"/>
  <g id="_1752639477504">
   <ellipse fill="#CCCCCC" stroke="black" stroke-width="2.08" stroke-linecap="round" stroke-linejoin="round" stroke-miterlimit="2.61313" transform="matrix(0.218857 -0.0216674 0.020584 0.207915 186.097 150.336)" rx="146.63" ry="140.16"/>
   <ellipse fill="#CCCCCC" stroke="black" stroke-width="2.08" stroke-linecap="round" stroke-linejoin="round" stroke-miterlimit="2.61313" transform="matrix(0.218857 -0.0216674 0.020584 0.207915 264.642 142.433)" rx="146.63" ry="140.16"/>
   <circle fill="black" stroke="black" stroke-width="2.08" stroke-linecap="round" stroke-linejoin="round" stroke-miterlimit="2.61313" transform="matrix(0.250774 -0.0248272 0.0235859 0.238235 188.428 148.391)" r="51.04"/>
   <circle fill="black" stroke="black" stroke-width="2.08" stroke-linecap="round" stroke-linejoin="round" stroke-miterlimit="2.61313" transform="matrix(0.250774 -0.0248272 0.0235859 0.238235 266.08 141.777)" r="51.04"/>
   <ellipse fill="white" stroke="black" stroke-width="2.08" stroke-linecap="round" stroke-linejoin="round" stroke-miterlimit="2.61313" transform="matrix(0.336764 -0.0333404 0.0316734 0.319926 184.664 151.595)" rx="12.64" ry="11.82"/>
   <ellipse fill="white" stroke="black" stroke-width="2.08" stroke-linecap="round" stroke-linejoin="round" stroke-miterlimit="2.61313" transform="matrix(0.336764 -0.0333404 0.0316734 0.319926 263.085 144.266)" rx="12.64" ry="11.82"/>
   <ellipse fill="white" stroke="black" stroke-width="2.08" stroke-linecap="round" stroke-linejoin="round" stroke-miterlimit="2.61313" transform="matrix(0.186265 -0.0184407 0.0175187 0.176953 196.348 141.218)" rx="40.18" ry="36.08"/>
   <ellipse fill="white" stroke="black" stroke-width="2.08" stroke-linecap="round" stroke-linejoin="round" stroke-miterlimit="2.61313" transform="matrix(0.186265 -0.0184407 0.0175187 0.176953 274.394 133.82)" rx="40.18" ry="36.08"/>
  </g>
 </g>
</svg>
