<?xml version="1.0" encoding="UTF-8"?>
<!DOCTYPE svg PUBLIC "-//W3C//DTD SVG 1.1//EN" "http://www.w3.org/Graphics/SVG/1.1/DTD/svg11.dtd">
<!-- Creator: CorelDRAW 2021 (64-Bit) -->
<svg xmlns="http://www.w3.org/2000/svg" xml:space="preserve" width="500px" height="500px" version="1.1" shape-rendering="geometricPrecision" text-rendering="geometricPrecision" image-rendering="optimizeQuality" fill-rule="evenodd" clip-rule="evenodd"
viewBox="0 0 500 500"
 xmlns:xlink="http://www.w3.org/1999/xlink"
 xmlns:xodm="http://www.corel.com/coreldraw/odm/2003">
 <g id="sampel">
  <metadata id="CorelCorpID_0Corel-Layer"/>
 </g>
 <g id="Layer_x0020_1">
  <metadata id="CorelCorpID_1Corel-Layer"/>
  <rect fill="none" x="1.89" y="-0.62" width="500" height="500"/>
  <g id="_1784694676016">
   <path fill="#FF6600" d="M106.57 150.52c0,0 -15.96,-56.68 -10.52,-94.18 0,0 37.13,4.09 71.14,36.75 0,0 4.42,-14.55 42.52,-14.55 0,0 23.13,-2.7 28.57,-17.22 0,0 6.8,2.71 2.72,17.22l11.2 -8.3c1.49,11.85 4.63,-23.73 1.16,39.81 -1.73,31.5 -2.85,95.67 -34.41,122.42 -27.95,23.69 -79.17,34.97 -113.63,34.69 -5.12,-0.04 -9.05,-10.82 -14.12,-15.84 -6.68,-11.78 -13.85,-25.7 -12.4,-43.35 0,0 -2.76,-30.3 27.77,-57.45z"/>
   <path fill="#996633" d="M229.53 71.56c4.36,-3.17 6.29,-5.08 8.75,-10.24 0,0 6.59,2.46 2.64,17.15l13.21 -9.65c0,0 4.53,10.21 0.95,16.59 0,0 43.34,-5.8 67.83,6.29 0,0 35.47,-34.96 62.68,-33.75 0,0 15.77,2.07 -12.8,83.11 0,0 50.7,58.79 10.68,111.05l-11.68 10.62c-42.33,11.92 -70.19,0.96 -92.38,-11.44 -69.05,-38.56 -50.55,-173.96 -50.55,-173.96l0.67 -5.77z"/>
   <path fill="#FF6633" d="M256.87 427.28c22.04,12.1 27.56,-5.48 39.98,-8.47 0,0 2.15,10.12 -4.74,21.19 -2.63,4.23 -10.05,8.21 -16.61,10.26 -0.03,-0.01 -5.95,3.28 -12.7,-7.33 -2.11,-3.3 -4.24,-8.87 -5.93,-15.65z"/>
   <path fill="#FF6633" d="M193.91 428.11c28.39,10.1 30.66,-5.12 43.09,-8.11 0,0 1,25 -22.96,31.1 0.48,1.07 -16.09,-5.79 -20.13,-22.99z"/>
   <path fill="#FF6633" d="M112.33 396.78c-0.29,-5.05 -0.04,-10.62 0.85,-16.75 0,0 3.38,-26.86 16.76,-54.84l7.97 3.6c0,0 46.51,11.3 -9.12,18.31 0,0 -5.31,6.14 1.49,6.02 6.8,-0.12 46.28,0.41 42.38,8.95 -3.9,8.53 -50.06,12.96 -50.06,12.96 0,0 -5.31,6.14 0.13,6.05 5.44,-0.1 27.23,0.73 20.59,8.11 -6.65,7.37 -23,6.45 -23,6.45 0,0 -3.24,0.49 -7.99,1.14z"/>
   <path fill="#FF6633" d="M371.66 391c0.14,-5.06 -0.28,-10.62 -1.35,-16.72 0,0 -4.19,-26.77 -18.41,-54.43l-7.86 3.79c0,0 -46.16,12.4 9.67,18.08 0,0 5.49,6.02 -1.31,6.06 -6.8,0.05 -46.24,1.51 -42.09,9.95 4.15,8.44 50.43,11.77 50.43,11.77 0,0 5.5,6.01 0.05,6.05 -5.44,0.03 -27.2,1.38 -20.33,8.6 6.86,7.21 23.18,5.89 23.18,5.89 0,0 3.26,0.42 8.02,0.96z"/>
  </g>
 </g>
</svg>
