<?xml version="1.0" encoding="UTF-8"?>
<!DOCTYPE svg PUBLIC "-//W3C//DTD SVG 1.1//EN" "http://www.w3.org/Graphics/SVG/1.1/DTD/svg11.dtd">
<!-- Creator: CorelDRAW 2021 (64-Bit) -->
<svg xmlns="http://www.w3.org/2000/svg" xml:space="preserve" width="500px" height="500px" version="1.1" shape-rendering="geometricPrecision" text-rendering="geometricPrecision" image-rendering="optimizeQuality" fill-rule="evenodd" clip-rule="evenodd"
viewBox="0 0 500 500"
 xmlns:xlink="http://www.w3.org/1999/xlink"
 xmlns:xodm="http://www.corel.com/coreldraw/odm/2003">
 <defs>
   <clipPath id="id0">
    <rect x="56" y="66" width="400" height="400"/>
   </clipPath>
 </defs>
 <g id="sampel" visibility="hidden">
  <metadata id="CorelCorpID_0Corel-Layer"/>
  <g clip-path="url(#id0)">
   <image x="56" y="66" width="400" height="400" xlink:href="4_Images\4_ImgID1.png"/>
  </g>
 </g>
 <g id="Layer_x0020_1">
  <metadata id="CorelCorpID_1Corel-Layer"/>
  <rect fill="none" x="1.89" y="-0.62" width="500" height="500"/>
  <g id="_2295759535504">
   <path fill="#4D4D4D" d="M256.87 427.28c22.04,12.1 27.56,-5.48 39.98,-8.47 0,0 1.65,13.08 -6.34,22.79 -3.16,3.84 -8.45,6.61 -15.01,8.66 -0.03,-0.01 -6.33,3.19 -12.14,-7.46 -1.88,-3.44 -4.8,-8.74 -6.49,-15.52z"/>
   <path fill="#FF9966" d="M102.22 149.91c0,0 -13.6,-58.06 -8.16,-95.56 0,0 39.46,1.21 73.47,33.87 0,0 4.08,-9.68 42.18,-9.68 0,0 23.13,-4.84 28.57,-19.35 0,0 6.8,4.84 2.72,19.35l16.33 -12.09c0,0 4.08,9.37 0,15.57 0,0 8.3,2.03 19.55,1.81 0.12,3.01 0.09,2.91 0.12,6.17 1.03,118.7 -153.36,98.17 -195,119 -0.28,-1.52 -9.53,-32.64 20.22,-59.09z"/>
   <path fill="#4D4D4D" d="M194.74 428.11c28.4,10.1 29.83,-5.12 42.26,-8.11 0,0 1,25 -22.96,31.1 0.48,1.07 -22.04,-12.1 -19.3,-22.99z"/>
   <path fill="#4D4D4D" d="M112.33 396.78c-0.29,-5.05 -0.04,-10.62 0.85,-16.75 0,0 3.38,-26.86 16.76,-54.84l7.97 3.6c0,0 46.51,11.3 -9.12,18.31 0,0 -5.31,6.14 1.49,6.02 6.8,-0.12 46.28,0.41 42.38,8.95 -3.9,8.53 -50.06,12.96 -50.06,12.96 0,0 -5.31,6.14 0.13,6.05 5.44,-0.1 27.23,0.73 20.59,8.11 -6.65,7.37 -23,6.45 -23,6.45 0,0 -3.24,0.49 -7.99,1.14z"/>
   <path fill="#4D4D4D" d="M371.66 391c0.14,-5.06 -0.28,-10.62 -1.35,-16.72 0,0 -4.19,-26.77 -18.41,-54.43l-7.86 3.79c0,0 -46.16,12.4 9.67,18.08 0,0 5.49,6.02 -1.31,6.06 -6.8,0.05 -46.24,1.51 -42.09,9.95 4.15,8.44 50.43,11.77 50.43,11.77 0,0 5.5,6.01 0.05,6.05 -5.44,0.03 -27.2,1.38 -20.33,8.6 6.86,7.21 23.18,5.89 23.18,5.89 0,0 3.26,0.42 8.02,0.96z"/>
  </g>
 </g>
</svg>
