<?xml version="1.0" encoding="UTF-8"?>
<!DOCTYPE svg PUBLIC "-//W3C//DTD SVG 1.1//EN" "http://www.w3.org/Graphics/SVG/1.1/DTD/svg11.dtd">
<!-- Creator: CorelDRAW 2021 (64-Bit) -->
<svg xmlns="http://www.w3.org/2000/svg" xml:space="preserve" width="500px" height="500px" version="1.1" shape-rendering="geometricPrecision" text-rendering="geometricPrecision" image-rendering="optimizeQuality" fill-rule="evenodd" clip-rule="evenodd"
viewBox="0 0 500 500"
 xmlns:xlink="http://www.w3.org/1999/xlink"
 xmlns:xodm="http://www.corel.com/coreldraw/odm/2003">
 <defs>
   <clipPath id="id0">
    <rect x="56" y="66" width="400" height="400"/>
   </clipPath>
 </defs>
 <g id="sampel" visibility="hidden">
  <metadata id="CorelCorpID_0Corel-Layer"/>
  <g clip-path="url(#id0)">
   <image x="56" y="66" width="400" height="400" xlink:href="6_Images\6_ImgID1.png"/>
  </g>
 </g>
 <g id="Layer_x0020_1">
  <metadata id="CorelCorpID_1Corel-Layer"/>
  <rect fill="none" x="1.89" y="-0.62" width="500" height="500"/>
  <g id="_2296508841280">
   <path fill="#B58484" d="M256.87 427.28c22.04,12.1 27.56,-5.48 39.98,-8.47 0,0 1.65,13.08 -6.34,22.79 -3.16,3.84 -8.45,6.61 -15.01,8.66 -0.03,-0.01 -6.33,3.19 -12.14,-7.46 -1.88,-3.44 -4.8,-8.74 -6.49,-15.52z"/>
   <path fill="#B58484" d="M194.74 428.11c28.4,10.1 29.83,-5.12 42.26,-8.11 0,0 1,25 -22.96,31.1 0.48,1.07 -22.04,-12.1 -19.3,-22.99z"/>
   <path fill="#B58484" d="M174.48 86.74c6.18,-2.04 16.26,-3.83 32.63,-3.83 0,0 1.96,-0.41 4.87,-1.35 0.19,1.94 0.38,3.99 0.57,6.19 2.72,31.45 -17.69,25.4 -17.69,25.4 -16.32,-2.42 -17.68,-20.56 -17.68,-20.56l-2.7 -5.85zm44.84 -8.05c6.47,-3.02 13.64,-7.86 16.36,-15.13 0,0 6.8,4.84 2.72,19.35l16.33 -12.09c0,0 4.08,9.37 0,15.57 0,0 1.86,-0.27 5.02,-0.58 -0.28,1.78 -0.6,3.64 -0.94,5.57 -4.08,22.98 -23.13,20.56 -23.13,20.56 -13.4,-9.11 -16.3,-23.09 -16.36,-33.25zm53.75 6.32c11.23,-0.28 25.79,0.36 38.28,4.18 -5.46,11.13 -13.73,23.31 -23.97,23.96 -11.51,0.73 -14.08,-15.32 -14.31,-28.14z"/>
   <path fill="#B58484" d="M398.9 212.4c-1.86,19.35 -11.48,39.79 -35.91,57.8l-5.52 -4.58c0,0 -12.24,-3.63 -5.44,-20.56 0,0 10.88,-9.68 23.13,3.63 0,0 12.25,4.83 6.8,-7.26 0,0 -24.49,-9.68 -28.57,-30.24 0,0 -2.72,-12.1 36.74,-1.21l8.77 2.42z"/>
   <path fill="#B58484" d="M80.74 213.04c-0.55,19.41 6.48,40.67 28.53,60.96l6.05 -4.01c0,0 12.62,-2.41 7.96,-19.9 0,0 -9.62,-10.69 -23.44,1.34 0,0 -12.77,3.61 -5.87,-7.88 0,0 25.54,-7.22 32.15,-27.26 0,0 4.2,-11.76 -36.36,-4.8l-9.02 1.55z"/>
   <path fill="#B58484" d="M112.33 396.78c-0.29,-5.05 -0.04,-10.62 0.85,-16.75 0,0 3.38,-26.86 16.76,-54.84l7.97 3.6c0,0 46.51,11.3 -9.12,18.31 0,0 -5.31,6.14 1.49,6.02 6.8,-0.12 46.28,0.41 42.38,8.95 -3.9,8.53 -50.06,12.96 -50.06,12.96 0,0 -5.31,6.14 0.13,6.05 5.44,-0.1 27.23,0.73 20.59,8.11 -6.65,7.37 -23,6.45 -23,6.45 0,0 -3.24,0.49 -7.99,1.14z"/>
   <path fill="#B58484" d="M371.66 391c0.14,-5.06 -0.28,-10.62 -1.35,-16.72 0,0 -4.19,-26.77 -18.41,-54.43l-7.86 3.79c0,0 -46.16,12.4 9.67,18.08 0,0 5.49,6.02 -1.31,6.06 -6.8,0.05 -46.24,1.51 -42.09,9.95 4.15,8.44 50.43,11.77 50.43,11.77 0,0 5.5,6.01 0.05,6.05 -5.44,0.03 -27.2,1.38 -20.33,8.6 6.86,7.21 23.18,5.89 23.18,5.89 0,0 3.26,0.42 8.02,0.96z"/>
  </g>
 </g>
</svg>
