<?xml version="1.0" encoding="UTF-8"?>
<!DOCTYPE svg PUBLIC "-//W3C//DTD SVG 1.1//EN" "http://www.w3.org/Graphics/SVG/1.1/DTD/svg11.dtd">
<!-- Creator: CorelDRAW 2021 (64-Bit) -->
<svg xmlns="http://www.w3.org/2000/svg" xml:space="preserve" width="500px" height="500px" version="1.1" shape-rendering="geometricPrecision" text-rendering="geometricPrecision" image-rendering="optimizeQuality" fill-rule="evenodd" clip-rule="evenodd"
viewBox="0 0 500 500"
 xmlns:xlink="http://www.w3.org/1999/xlink"
 xmlns:xodm="http://www.corel.com/coreldraw/odm/2003">
 <defs>
   <clipPath id="id0">
    <rect x="-566.65" y="7.11" width="400" height="400"/>
   </clipPath>
   <clipPath id="id1">
    <rect x="-929.46" y="504.95" width="601.63" height="601.63"/>
   </clipPath>
 </defs>
 <g id="sampel" visibility="hidden">
  <metadata id="CorelCorpID_0Corel-Layer"/>
  <g clip-path="url(#id0)">
   <image x="-566.65" y="7.11" width="400" height="400" xlink:href="6_Images\6_ImgID1.png"/>
  </g>
  <g clip-path="url(#id1)">
   <image x="-929.46" y="504.95" width="601.63" height="601.63" xlink:href="6_Images\6_ImgID2.png"/>
  </g>
  <ellipse fill="#F7B813" stroke="black" stroke-width="2" stroke-linecap="round" stroke-linejoin="round" stroke-miterlimit="2.61313" cx="8.46" cy="626.35" rx="34.16" ry="33.24"/>
  <ellipse fill="#E96300" stroke="black" stroke-width="2" stroke-linecap="round" stroke-linejoin="round" stroke-miterlimit="2.61313" cx="99.01" cy="628.56" rx="34.16" ry="33.24"/>
  <ellipse fill="#FFD952" stroke="black" stroke-width="2" stroke-linecap="round" stroke-linejoin="round" stroke-miterlimit="2.61313" cx="192.41" cy="626.96" rx="34.16" ry="33.24"/>
  <ellipse fill="#E98700" stroke="black" stroke-width="2" stroke-linecap="round" stroke-linejoin="round" stroke-miterlimit="2.61313" cx="287.41" cy="624.57" rx="34.16" ry="33.24"/>
  <ellipse fill="#FFED8B" stroke="black" stroke-width="2" stroke-linecap="round" stroke-linejoin="round" stroke-miterlimit="2.61313" cx="384.78" cy="621.19" rx="34.16" ry="33.24"/>
  <ellipse fill="#E3B085" stroke="black" stroke-width="2" stroke-linecap="round" stroke-linejoin="round" stroke-miterlimit="2.61313" cx="486.71" cy="621.19" rx="34.16" ry="33.24"/>
  <ellipse fill="#B11914" stroke="black" stroke-width="2" stroke-linecap="round" stroke-linejoin="round" stroke-miterlimit="2.61313" cx="13.15" cy="746.61" rx="42.31" ry="40.8"/>
  <ellipse fill="#B11914" stroke="black" stroke-width="2" stroke-linecap="round" stroke-linejoin="round" stroke-miterlimit="2.61313" cx="124.62" cy="743.75" rx="42.31" ry="40.8"/>
 </g>
 <g id="Layer_x0020_1">
  <metadata id="CorelCorpID_1Corel-Layer"/>
  <rect fill="none" x="1.89" y="-0.62" width="500" height="500"/>
  <g id="_1565572037792">
   <path fill="#E98700" d="M256.87 427.28c22.04,12.1 27.56,-5.48 39.98,-8.47 0,0 2.15,10.12 -4.74,21.19 -2.63,4.23 -10.05,8.21 -16.61,10.26 -0.03,-0.01 -5.95,3.28 -12.7,-7.33 -2.11,-3.3 -4.24,-8.87 -5.93,-15.65z"/>
   <path fill="#E98700" d="M102.22 149.91c0,0 -13.6,-58.06 -8.16,-95.56 0,0 39.46,1.21 73.47,33.87 0,0 4.08,-9.68 42.18,-9.68 0,0 23.13,-4.84 28.57,-19.35 0,0 6.8,4.84 2.72,19.35l16.33 -12.09c0,0 4.08,9.37 0,15.57 0,0 8.3,2.03 19.55,1.81 0.12,3.01 0.09,2.91 0.12,6.17 1.03,118.7 -153.36,98.17 -195,119 -0.28,-1.52 -9.53,-32.64 20.22,-59.09z"/>
   <path fill="#E98700" d="M193.91 428.11c28.39,10.1 30.66,-5.12 43.09,-8.11 0,0 1,25 -22.96,31.1 0.48,1.07 -16.09,-5.79 -20.13,-22.99z"/>
   <path fill="#E98700" d="M112.33 396.78c-0.29,-5.05 -0.04,-10.62 0.85,-16.75 0,0 3.38,-26.86 16.76,-54.84l7.97 3.6c0,0 46.51,11.3 -9.12,18.31 0,0 -5.31,6.14 1.49,6.02 6.8,-0.12 46.28,0.41 42.38,8.95 -3.9,8.53 -50.06,12.96 -50.06,12.96 0,0 -5.31,6.14 0.13,6.05 5.44,-0.1 27.23,0.73 20.59,8.11 -6.65,7.37 -23,6.45 -23,6.45 0,0 -3.24,0.49 -7.99,1.14z"/>
   <polygon fill="#E98700" points="381.47,361.15 396.5,378.1 401.67,373.65 385.68,355.44 "/>
   <polygon fill="#E98700" points="379.24,375.93 385.91,386.28 391.46,382.04 377.43,365.5 "/>
   <path fill="#E98700" d="M398.9 212.4c-1.86,19.35 -11.48,39.79 -35.91,57.8l-5.52 -4.58c0,0 -12.24,-3.63 -5.44,-20.56 0,0 10.88,-9.68 23.13,3.63 0,0 12.25,4.83 6.8,-7.26 0,0 -24.49,-9.68 -28.57,-30.24 0,0 -2.72,-12.1 36.74,-1.21l8.77 2.42z"/>
   <polygon fill="#E98700" points="389.7,346.98 410.67,364.87 415.61,359.18 391.32,340.36 "/>
   <path fill="#E98700" d="M390.9 328.95c0,0 31.03,11.38 28.32,-7.11l-1.3 -7.4 -2.78 -2.29 -3.6 -2.17c-1.43,-0.85 -13.64,-1.03 -19.21,1.38 -2.71,1.18 -3.98,2.76 -4.4,4.13 -0.28,0.92 -0.29,2.38 0.08,4.12 0.57,2.73 2.01,6.17 2.89,9.34z"/>
   <path fill="#E98700" d="M371.66 391c0.14,-5.06 -0.28,-10.62 -1.35,-16.72 0,0 -4.19,-26.77 -18.41,-54.43l-7.86 3.79c0,0 -46.16,12.4 9.67,18.08 0,0 5.49,6.02 -1.31,6.06 -6.8,0.05 -46.24,1.51 -42.09,9.95 4.15,8.44 50.43,11.77 50.43,11.77 0,0 5.5,6.01 0.05,6.05 -5.44,0.03 -27.2,1.38 -20.33,8.6 6.86,7.21 23.18,5.89 23.18,5.89 0,0 3.26,0.42 8.02,0.96z"/>
  </g>
 </g>
</svg>
