<?xml version="1.0" encoding="UTF-8"?>
<!DOCTYPE svg PUBLIC "-//W3C//DTD SVG 1.1//EN" "http://www.w3.org/Graphics/SVG/1.1/DTD/svg11.dtd">
<!-- Creator: CorelDRAW 2021 (64-Bit) -->
<svg xmlns="http://www.w3.org/2000/svg" xml:space="preserve" width="500px" height="500px" version="1.1" shape-rendering="geometricPrecision" text-rendering="geometricPrecision" image-rendering="optimizeQuality" fill-rule="evenodd" clip-rule="evenodd"
viewBox="0 0 500 500"
 xmlns:xlink="http://www.w3.org/1999/xlink"
 xmlns:xodm="http://www.corel.com/coreldraw/odm/2003">
 <g id="Layer_x0020_2">
  <metadata id="CorelCorpID_0Corel-Layer"/>
  <rect fill="none" x="0.47" y="0.39" width="500" height="500"/>
  <g>
   <path fill="#996633" d="M105 157c0,0 8,-43 9,-59 1,-16 2,-30 15,-43 0,0 8,-4 45,49 0,0 53,-17 107,1 0,0 21,-12 29,-31 8,-19 24,-24 24,-24 0,0 18,11 16,43 -2,32 5,61 7,62 2,1 4,9 24,6 0,0 2,8 -2,12 -4,4 16,3 16,3 0,0 0,11 -16,20 0,0 -2,10 12,4 0,0 1,16 -21,22 0,0 2,28 -31,51 0,0 72,139 2,161 0,0 -34,13 -67,8 0,0 -27,30 -38,-1l-8 0c0,0 -18,34 -39,-2 0,0 -90,12 -83,-62 0,0 5,-76 33,-92 0,0 -46,-19 -50,-63 0,0 -17,-13 -17,-20 0,-7 14,-1 15,-4 1,-3 -22,-15 -20,-22 2,-7 15,1 17,-2 2,-3 -7,-13 -3,-17 0,0 9.26,6.73 16,4 6.73,-2.73 8,-4 8,-4zm256.53 171.47c0,-0.98 30.47,-39.47 56.47,-34.47 26,5 -1,23 -1,23 0,0 -44.89,40.68 -46.89,47.68l-8.58 -36.21z"/>
   <path id="_1" fill="none" stroke="black" stroke-width="8" stroke-linecap="round" stroke-linejoin="round" stroke-miterlimit="2.61313" d="M105 157c0,0 8,-43 9,-59 1,-16 2,-30 15,-43 0,0 8,-4 45,49 0,0 53,-17 107,1 0,0 21,-12 29,-31 8,-19 24,-24 24,-24 0,0 18,11 16,43 -2,32 5,61 7,62 2,1 4,9 24,6 0,0 2,8 -2,12 -4,4 16,3 16,3 0,0 0,11 -16,20 0,0 -2,10 12,4 0,0 1,16 -21,22 0,0 2,28 -31,51 0,0 72,139 2,161 0,0 -34,13 -67,8 0,0 -27,30 -38,-1l-8 0c0,0 -18,34 -39,-2 0,0 -90,12 -83,-62 0,0 5,-76 33,-92 0,0 -46,-19 -50,-63 0,0 -17,-13 -17,-20 0,-7 14,-1 15,-4 1,-3 -22,-15 -20,-22 2,-7 15,1 17,-2 2,-3 -7,-13 -3,-17 0,0 9.26,6.73 16,4 6.73,-2.73 8,-4 8,-4zm256.53 171.47c0,-0.98 30.47,-39.47 56.47,-34.47 26,5 -1,23 -1,23 0,0 -44.89,40.68 -46.89,47.68"/>
  </g>
 </g>
</svg>
