<?xml version="1.0" encoding="UTF-8"?>
<!DOCTYPE svg PUBLIC "-//W3C//DTD SVG 1.1//EN" "http://www.w3.org/Graphics/SVG/1.1/DTD/svg11.dtd">
<!-- Creator: CorelDRAW 2021 (64-Bit) -->
<svg xmlns="http://www.w3.org/2000/svg" xml:space="preserve" width="500px" height="500px" version="1.1" style="shape-rendering:geometricPrecision; text-rendering:geometricPrecision; image-rendering:optimizeQuality; fill-rule:evenodd; clip-rule:evenodd"
viewBox="0 0 500 500"
 xmlns:xlink="http://www.w3.org/1999/xlink"
 xmlns:xodm="http://www.corel.com/coreldraw/odm/2003">
 <defs>
  <style type="text/css">
   <![CDATA[
    .fil0 {fill:none}
    .fil2 {fill:#663333}
    .fil3 {fill:#999999}
    .fil1 {fill:#FF9933}
   ]]>
  </style>
 </defs>
 <g id="Layer_x0020_1">
  <metadata id="CorelCorpID_0Corel-Layer"/>
  <rect class="fil0" x="1.89" y="-0.62" width="500" height="500"/>
  <g id="_2295649072560">
   <path class="fil1" d="M240.82 317.73c0,0 1.38,12.64 10.74,13.48 9.36,0.84 21.08,-0.84 22.95,-1.5 0,0 18.72,-8.42 12.61,-19.46 -6.11,-11.05 -6.5,-16.85 -16.06,-22 -9.55,-5.14 -34.87,4.87 -34.87,4.87 0,0 -6.11,1.22 -6.8,15.35 0,0 -0.79,6.46 11.43,9.26z"/>
   <path class="fil2" d="M344.32 294.71c6.81,10.54 29.91,63.09 28.79,73.82 -0.33,3.15 -1.47,3.51 -2.54,4.38l0.66 24.32c-0.98,0.29 -8.07,13.77 -22.35,22.99 -9.76,6.31 -23.35,10.74 -36.42,11.82 -0.71,-3.09 -1.29,-6.75 -1.68,-11.08 -3.24,-35.99 33.25,-54.12 34.08,-60.63 0.83,-6.51 -13.7,-4.71 -17.78,-28.41 -4.08,-23.7 13.2,-32.53 13.2,-32.53l4.04 -4.68z"/>
   <path class="fil3" d="M402.6 369.46c0.45,-0.25 14.26,-15.39 14.88,-16.34l8.15 1.98 4.12 -0.03c-4.46,7.8 -9.12,17.93 -19.56,23.83l-2.25 -2.7 -2 -2.4 -3.34 -4.34z"/>
   <path class="fil3" d="M406.25 262.15c-0.26,-2.4 -0.18,-3.43 -0.18,-3.43 0,0 1.07,-13.61 18.96,-15.37l4.55 4.82c0,0 11.33,17.11 -18.38,14.68 -1.88,-0.15 -3.52,-0.39 -4.95,-0.7z"/>
   <path class="fil2" d="M96.85 173.13c1.66,-5.23 4.04,-11.23 7.33,-16.37 0,0 -19.46,-79.87 -5.83,-99.97 0,0 14.72,-14.65 56.35,33.3 0,0 20.47,-4.47 48.09,-1.73 0,0 3.63,-2.01 8.51,-4.83 -0.14,3.55 -0.47,7.26 -1.05,11.17 -13.48,91.45 -105.35,79.44 -105.35,79.44l-8.05 -1.01z"/>
   <path class="fil1" d="M86.91 382.86c1.48,-20.58 9.94,-43.18 18.13,-60.8l6.16 1.69c0,0 25.79,10.86 0,19.16 0,0 16.01,32.41 6.24,37.15 -9.78,4.75 -25.8,4.35 -25.8,4.35l-4.73 -1.55z"/>
   <path class="fil1" d="M427.64 317.21l8.02 0 3.76 0.15c0.23,-3.04 0.25,-5.73 0.18,-7.84 -4.52,0.35 -11.28,0.7 -17.62,0.31 0.54,1.47 1.12,3.01 1.75,4.62 0.38,0.98 0.68,1.94 0.91,2.89l3 -0.13z"/>
  </g>
 </g>
</svg>
