<?xml version="1.0" encoding="UTF-8"?>
<!DOCTYPE svg PUBLIC "-//W3C//DTD SVG 1.1//EN" "http://www.w3.org/Graphics/SVG/1.1/DTD/svg11.dtd">
<!-- Creator: CorelDRAW 2021 (64-Bit) -->
<svg xmlns="http://www.w3.org/2000/svg" xml:space="preserve" width="500px" height="500px" version="1.1" style="shape-rendering:geometricPrecision; text-rendering:geometricPrecision; image-rendering:optimizeQuality; fill-rule:evenodd; clip-rule:evenodd"
viewBox="0 0 500 500"
 xmlns:xlink="http://www.w3.org/1999/xlink"
 xmlns:xodm="http://www.corel.com/coreldraw/odm/2003">
 <defs>
  <style type="text/css">
   <![CDATA[
    .fil0 {fill:none}
    .fil1 {fill:#CC9933}
   ]]>
  </style>
 </defs>
 <g id="Layer_x0020_1">
  <metadata id="CorelCorpID_0Corel-Layer"/>
  <rect class="fil0" x="1.89" y="-0.62" width="500" height="500"/>
  <g id="_2295103013008">
   <path class="fil1" d="M380.05 382.93c2.6,-0.93 5.35,-2.14 7.87,-3.53 2.03,1.43 2.5,2.76 4.36,3.42 0.91,0.33 4.11,3.82 5.6,4.91 -2.4,1.36 -4.66,2.22 -7.33,3.22 -3.39,-2.25 -7.53,-5.66 -10.5,-8.02z"/>
   <path class="fil1" d="M425.85 329.59c0.16,-1.4 0.21,-2.85 0.13,-4.34 1.3,0.14 2.29,0.23 2.29,0.23 0.55,0.03 6.5,0.81 7.01,1.42 0.19,0.23 1.36,0.95 2.77,1.78 -0.37,2.04 -0.64,4.35 -1.2,6.52 -3.03,-1.76 -7.42,-4.23 -11,-5.61z"/>
   <path class="fil1" d="M407.73 261.24c-0.66,-4.67 3.01,-19.7 28.32,-19 1.53,2.79 2.55,3.24 2.55,3.24 0,0 4.58,-1.03 4.58,18.66 0,19.7 -28.77,1.62 -28.77,1.62l-6.68 -4.52z"/>
   <path class="fil1" d="M91.55 364.04c2.44,-10.83 6.18,-21.67 10.26,-31.61 0.67,0.7 2.22,1.38 5.09,1.99 13.55,2.86 39.15,-4.29 32.62,3.34 -6.52,7.62 -36.88,7.62 -36.88,7.62 0,0 -13.3,9.06 -2.01,9.54 11.29,0.48 43.41,-1.19 43.41,-1.19 0,0 -12.55,13.82 -44.42,10.96 -2.95,-0.26 -5.64,-0.48 -8.07,-0.65zm11.44 -34.41c1.92,-4.54 3.89,-8.85 5.82,-12.85l8.13 0.71c0,0 62.48,1.67 27.6,5.49 -34.88,3.81 -35.38,4.05 -35.38,4.05 0,0 -3.91,1.12 -6.17,2.6z"/>
   <path class="fil1" d="M370.5 353.91c-2.94,-10.71 -7.75,-21.39 -12.29,-31.14 -0.63,0.72 -2.15,1.47 -4.99,2.19 -13.4,3.43 -39.31,-2.65 -32.43,4.7 6.87,7.35 37.2,6.08 37.2,6.08 0,0 13.71,8.49 2.45,9.44 -11.26,0.95 -43.43,0.63 -43.43,0.63 0,0 27.56,11.38 44.88,9.09 17.33,-2.28 6.19,-0.71 8.61,-0.99zm-13.59 -33.9c-2.13,-4.45 -4.3,-8.67 -6.41,-12.59l-8.09 1.05c0,0 -62.34,4.28 -27.32,6.63 35.02,2.36 35.53,2.57 35.53,2.57 0,0 3.96,0.96 6.29,2.34z"/>
   <path class="fil1" d="M107.69 274.29c-3.69,-2.94 -7.59,-6.51 -11.07,-10.63l3.27 -1.14c0,0 55.45,-12.63 31.11,0 -14.39,7.47 -20.62,10.52 -23.31,11.77z"/>
   <path class="fil1" d="M351.46 270.56c3.46,-3.21 7.08,-7.07 10.23,-11.44l-3.35 -0.88c0,0 -56.24,-8.39 -31.02,2.36 14.92,6.35 21.36,8.92 24.14,9.96z"/>
   <path class="fil1" d="M163.16 414.65c0,0 9.56,17.1 21.83,7.26 12.27,-9.84 13.49,-11.07 13.49,-11.07 0,0 -0.6,16.31 -6.55,26.34 -1.42,2.39 -4.02,4.23 -7.09,5.19 -1.34,0.42 -2.87,0.58 -4.27,0.69 -7.74,0.59 -10.11,-3.92 -13.6,-13.38 -0.64,-1.73 -1.35,-3.6 -1.83,-5.25 -1.59,-5.42 -1.98,-9.78 -1.98,-9.78z"/>
   <path class="fil1" d="M233.24 412.03c0,0 9.1,17.56 21.37,7.72 12.28,-9.84 14.63,-8.67 14.63,-8.67 0,0 -1.74,13.92 -7.69,23.95 -1.41,2.38 -3.92,4.6 -6.99,5.55 -1.34,0.42 -3.3,0.64 -4.5,0.45 -4.07,-0.68 -7.07,-1.41 -9.05,-3.7 -2.09,-2.42 -5.19,-11.4 -6.25,-15.05 -1.58,-5.42 -1.52,-10.25 -1.52,-10.25z"/>
   <path class="fil1" d="M423.62 343.22l8.74 3.47 1.09 0.35c-1.12,3.11 -2.15,5.69 -3.67,8.78 -6.73,-2.97 -3.49,-1.4 -10.86,-4.27 1.63,-2.56 3.11,-5.67 4.21,-8.51l0.49 0.18z"/>
   <path class="fil1" d="M411.18 362.4l8.74 3.47 2.67 1.46c-1.95,2.71 -3.64,4.19 -6.23,7.22 -6.74,-2.96 -5.15,-3.07 -12.52,-5.94 2.1,-1.93 5.04,-4.53 6.85,-6.4l0.49 0.19z"/>
   <path class="fil1" d="M89.05 251.79c-0.71,-1.96 -1.27,-3.99 -1.62,-6.08 0,0 -0.59,-2.87 -1,-7.32l5.89 -2.06c0,0 55.45,-12.63 31.11,0 -24.34,12.64 -25.34,12.64 -25.34,12.64l-9.04 2.82z"/>
   <path class="fil1" d="M365.79 251.21c0.85,-1.91 2.24,-4.25 2.97,-6.2 0,0 0.93,-2.04 1.96,-6.23l-6.09 -2.83c0,0 -54.39,-16.56 -31.02,-2.22 23.37,14.34 24.37,14.41 24.37,14.41l7.81 3.07z"/>
   <path class="fil1" d="M170.93 89.57c7.96,-0.48 18,-4.08 29.21,-2.97 0,0 32.4,-22.19 33.02,-25.52 0,0 7.59,3.98 0.58,25.13 0,0 9.29,-12.08 14.67,-12.93 0,0 -1,8.4 0.58,15.05 0,0 8.92,1.15 24.03,1.74l0 0.28c0,0 -4.83,33.34 -13.61,25.01 -8.77,-8.34 -18.42,-21.26 -18.42,-21.26 0,0 -0.44,-2.92 -12.73,36.68 -12.28,39.59 -24.56,-35.43 -24.56,-35.43 0,0 -6.15,-16.25 -15.8,13.75 -9.65,30.02 -15.79,-15 -15.79,-15l-1.18 -4.53z"/>
  </g>
 </g>
</svg>
