<?xml version="1.0" encoding="UTF-8"?>
<!DOCTYPE svg PUBLIC "-//W3C//DTD SVG 1.1//EN" "http://www.w3.org/Graphics/SVG/1.1/DTD/svg11.dtd">
<!-- Creator: CorelDRAW 2021 (64-Bit) -->
<svg xmlns="http://www.w3.org/2000/svg" xml:space="preserve" width="1.66666in" height="1.66666in" version="1.1" style="shape-rendering:geometricPrecision; text-rendering:geometricPrecision; image-rendering:optimizeQuality; fill-rule:evenodd; clip-rule:evenodd"
viewBox="0 0 1666.66 1666.66"
 xmlns:xlink="http://www.w3.org/1999/xlink"
 xmlns:xodm="http://www.corel.com/coreldraw/odm/2003">
 <defs>
  <style type="text/css">
   <![CDATA[
    .fil0 {fill:none}
    .fil1 {fill:#6699FF}
   ]]>
  </style>
 </defs>
 <g id="Layer_x0020_1">
  <metadata id="CorelCorpID_0Corel-Layer"/>
  <rect class="fil0" x="6.32" y="-2.06" width="1666.67" height="1666.67"/>
  <path class="fil1" d="M1266.83 1276.44c8.66,-3.12 17.85,-7.13 26.24,-11.77 6.75,4.76 8.34,9.2 14.53,11.41 3.04,1.08 13.7,12.71 18.66,16.35 -8.02,4.54 -15.52,7.39 -24.43,10.73 -11.3,-7.5 -25.11,-18.86 -35.01,-26.72z"/>
  <path class="fil1" d="M1419.51 1098.64c0.52,-4.67 0.68,-9.5 0.43,-14.47 4.33,0.46 7.62,0.74 7.62,0.74 1.85,0.11 21.67,2.71 23.38,4.76 0.62,0.75 4.52,3.16 9.21,5.93 -1.22,6.8 -2.13,14.49 -4,21.72 -10.1,-5.86 -24.73,-14.09 -36.64,-18.69z"/>
  <path class="fil1" d="M1359.09 870.8c-2.2,-15.57 10.05,-65.66 94.39,-63.34 5.12,9.28 8.49,10.8 8.49,10.8 0,0 15.28,-3.45 15.28,62.21 0,65.66 -95.89,5.39 -95.89,5.39l-22.28 -15.06z"/>
  <path class="fil1" d="M305.16 1213.45c8.15,-36.08 20.62,-72.23 34.22,-105.34 2.22,2.32 7.38,4.59 16.95,6.62 45.17,9.54 130.48,-14.3 108.74,11.12 -21.75,25.43 -122.96,25.43 -122.96,25.43 0,0 -44.33,30.2 -6.69,31.78 37.64,1.59 144.7,-3.97 144.7,-3.97 0,0 -41.82,46.09 -148.05,36.56 -9.85,-0.89 -18.8,-1.61 -26.92,-2.19zm38.13 -114.7c6.41,-15.11 12.99,-29.48 19.42,-42.83l27.09 2.39c0,0 208.27,5.56 92.01,18.28 -116.27,12.71 -117.94,13.51 -117.94,13.51 0,0 -13.03,3.73 -20.58,8.66z"/>
  <path class="fil1" d="M1235.01 1179.7c-9.81,-35.7 -25.85,-71.3 -40.98,-103.81 -2.11,2.41 -7.16,4.9 -16.63,7.31 -44.69,11.41 -131.02,-8.83 -108.12,15.66 22.9,24.5 124.02,20.27 124.02,20.27 0,0 45.69,28.31 8.15,31.47 -37.53,3.16 -144.75,2.08 -144.75,2.08 0,0 91.85,37.96 149.6,30.33 57.74,-7.63 20.62,-2.39 28.7,-3.31zm-45.31 -112.99c-7.1,-14.83 -14.34,-28.91 -21.38,-41.98l-26.95 3.52c0,0 -207.81,14.26 -91.07,22.1 116.74,7.85 118.45,8.57 118.45,8.57 0,0 13.19,3.19 20.96,7.8z"/>
  <path class="fil1" d="M358.97 914.3c-12.3,-9.8 -25.32,-21.7 -36.9,-35.43l10.91 -3.8c0,0 184.81,-42.11 103.7,0 -47.96,24.89 -68.73,35.07 -77.7,39.23z"/>
  <path class="fil1" d="M1171.52 901.87c11.52,-10.71 23.6,-23.56 34.11,-38.13l-11.17 -2.96c0,0 -187.48,-27.95 -103.39,7.87 49.71,21.18 71.19,29.75 80.45,33.21z"/>
  <path class="fil1" d="M543.85 1382.15c0,0 31.88,57 72.79,24.2 40.91,-32.8 44.97,-36.87 44.97,-36.87 0,0 -2.03,54.36 -21.85,87.79 -4.72,7.96 -13.38,14.11 -23.62,17.3 -4.48,1.39 -9.57,1.93 -14.25,2.29 -25.78,2 -33.69,-13.04 -45.32,-44.58 -2.12,-5.76 -4.51,-12 -6.11,-17.5 -5.28,-18.07 -6.61,-32.61 -6.61,-32.61z"/>
  <path class="fil1" d="M777.47 1373.43c0,0 30.34,58.54 71.24,25.74 40.91,-32.8 48.77,-28.89 48.77,-28.89 0,0 -5.83,46.38 -25.65,79.81 -4.71,7.95 -13.06,15.33 -23.3,18.51 -4.47,1.39 -11.01,2.14 -14.99,1.48 -13.58,-2.24 -23.57,-4.68 -30.18,-12.32 -6.98,-8.07 -17.29,-38.01 -20.84,-50.17 -5.28,-18.07 -5.06,-34.16 -5.06,-34.16z"/>
  <path class="fil1" d="M1412.05 1144.07l29.15 11.56 3.63 1.18c-3.74,10.37 -7.17,18.98 -12.22,29.24 -22.46,-9.89 -11.65,-4.65 -36.22,-14.21 5.45,-8.53 10.39,-18.91 14.03,-28.38l1.63 0.61z"/>
  <path class="fil1" d="M1370.59 1207.99l29.15 11.56 8.89 4.87c-6.48,9.03 -12.11,13.96 -20.75,24.09 -22.46,-9.89 -17.17,-10.26 -41.74,-19.81 7.01,-6.43 16.8,-15.1 22.83,-21.32l1.63 0.61z"/>
  <path class="fil1" d="M296.84 839.29c-2.37,-6.54 -4.23,-13.3 -5.42,-20.28 0,0 -1.96,-9.56 -3.31,-24.4l19.63 -6.84c0,0 184.81,-42.11 103.7,0 -81.12,42.11 -84.46,42.11 -84.46,42.11l-30.13 9.41z"/>
  <path class="fil1" d="M1219.28 837.35c2.83,-6.35 7.48,-14.15 9.93,-20.64 0,0 3.08,-6.8 6.52,-20.77l-20.29 -9.43c0,0 -181.33,-55.21 -103.43,-7.41 77.9,47.8 81.24,48.04 81.24,48.04l26.03 10.22z"/>
  <path class="fil1" d="M569.76 298.56c26.55,-1.61 59.99,-13.6 97.37,-9.89 0,0 107.98,-73.96 110.05,-85.06 0,0 25.3,13.26 1.94,83.75 0,0 30.97,-40.25 48.89,-43.09 0,0 -3.33,28 1.94,50.14 0,0 29.75,3.85 80.08,5.81l0 0.93c0,0 -16.09,111.15 -45.33,83.36 -29.25,-27.79 -61.43,-70.86 -61.43,-70.86 0,0 -1.46,-9.72 -42.41,122.26 -40.94,131.99 -81.89,-118.09 -81.89,-118.09 0,0 -20.48,-54.19 -52.65,45.85 -32.17,100.04 -52.65,-50.02 -52.65,-50.02l-3.92 -15.1z"/>
 </g>
</svg>
