<?xml version="1.0" encoding="UTF-8"?>
<!DOCTYPE svg PUBLIC "-//W3C//DTD SVG 1.1//EN" "http://www.w3.org/Graphics/SVG/1.1/DTD/svg11.dtd">
<!-- Creator: CorelDRAW 2021 (64-Bit) -->
<svg xmlns="http://www.w3.org/2000/svg" xml:space="preserve" width="500px" height="500px" version="1.1" style="shape-rendering:geometricPrecision; text-rendering:geometricPrecision; image-rendering:optimizeQuality; fill-rule:evenodd; clip-rule:evenodd"
viewBox="0 0 500 500"
 xmlns:xlink="http://www.w3.org/1999/xlink"
 xmlns:xodm="http://www.corel.com/coreldraw/odm/2003">
 <defs>
  <style type="text/css">
   <![CDATA[
    .fil0 {fill:none}
    .fil3 {fill:#BCC1C5}
    .fil2 {fill:#F6B058}
    .fil4 {fill:#F7B056}
    .fil1 {fill:#FDAD4A}
   ]]>
  </style>
 </defs>
 <g id="Layer_x0020_1">
  <metadata id="CorelCorpID_0Corel-Layer"/>
  <rect class="fil0" x="1.89" y="-0.62" width="500" height="500"/>
  <g id="_2295475708656">
   <path class="fil1" d="M240.82 317.73c0,0 1.38,12.64 10.74,13.48 9.36,0.84 21.08,-0.84 22.95,-1.5 0,0 18.72,-8.42 12.61,-19.46 -6.11,-11.05 -6.5,-16.85 -16.06,-22 -9.55,-5.14 -34.87,4.87 -34.87,4.87 0,0 -6.11,1.22 -6.8,15.35 0,0 -0.79,6.46 11.43,9.26z"/>
   <path class="fil2" d="M343.08 296.01c6.81,10.54 29.9,63.09 28.79,73.81 -0.33,3.16 -1.47,3.52 -2.54,4.39l0.65 24.32c-0.97,0.29 -8.07,13.76 -22.34,22.99 -9.77,6.3 -23.36,10.74 -36.43,11.82 -0.71,-3.09 -1.28,-6.75 -1.67,-11.08 -3.24,-36 33.24,-54.12 34.07,-60.63 0.84,-6.51 -13.7,-4.71 -17.77,-28.41 -4.08,-23.71 13.2,-32.54 13.2,-32.54l4.04 -4.67z"/>
   <path class="fil3" d="M402.17 368.96c2.37,-1.55 1.61,-1.37 6.64,-6.13 0.84,-0.8 5.67,-6.1 7.73,-9.83l8.27 1.4 4.1 -0.33c-3.88,8.1 -7.81,18.53 -17.8,25.17l-2.44 -2.54 -2.16 -2.24 -4.34 -5.5z"/>
   <path class="fil3" d="M406.25 262.15c-0.26,-2.4 -0.18,-3.43 -0.18,-3.43 0,0 1.07,-13.61 18.96,-15.37l4.55 4.82c0,0 11.33,17.11 -18.38,14.68 -1.88,-0.15 -3.52,-0.39 -4.95,-0.7z"/>
   <path class="fil3" d="M96.85 173.13c1.66,-5.23 4.04,-11.23 7.33,-16.37 0,0 -19.46,-79.87 -5.83,-99.97 0,0 14.72,-14.65 56.35,33.3 0,0 20.47,-4.47 48.09,-1.73 0,0 3.63,-2.01 8.51,-4.83 -0.14,3.55 -0.47,7.26 -1.05,11.17 -13.48,91.45 -105.35,79.44 -105.35,79.44l-8.05 -1.01z"/>
   <path class="fil4" d="M86.91 382.86c1.48,-20.58 9.94,-43.18 18.13,-60.8l6.16 1.69c0,0 25.79,10.86 0,19.16 0,0 16.01,32.41 6.24,37.15 -9.78,4.75 -25.8,4.35 -25.8,4.35l-4.73 -1.55z"/>
   <path class="fil3" d="M425.96 317.7l8.02 0 3.76 0.15c0.23,-3.05 0.25,-5.73 0.18,-7.84 -4.52,0.35 -11.28,0.69 -17.62,0.3 0.54,1.47 1.12,3.01 1.75,4.62 0.38,0.98 0.68,1.95 0.91,2.89l3 -0.12z"/>
  </g>
 </g>
</svg>
