<?xml version="1.0" encoding="UTF-8"?>
<!DOCTYPE svg PUBLIC "-//W3C//DTD SVG 1.1//EN" "http://www.w3.org/Graphics/SVG/1.1/DTD/svg11.dtd">
<!-- Creator: CorelDRAW 2021 (64-Bit) -->
<svg xmlns="http://www.w3.org/2000/svg" xml:space="preserve" width="500px" height="500px" version="1.1" shape-rendering="geometricPrecision" text-rendering="geometricPrecision" image-rendering="optimizeQuality" fill-rule="evenodd" clip-rule="evenodd"
viewBox="0 0 500 500"
 xmlns:xlink="http://www.w3.org/1999/xlink"
 xmlns:xodm="http://www.corel.com/coreldraw/odm/2003">
 <g id="sampel">
  <metadata id="CorelCorpID_0Corel-Layer"/>
 </g>
 <g id="Layer_x0020_1">
  <metadata id="CorelCorpID_1Corel-Layer"/>
  <rect fill="none" x="1.89" y="-0.62" width="500" height="500"/>
  <g id="_1784698175200">
   <path fill="black" stroke="black" stroke-width="2" stroke-linecap="round" stroke-linejoin="round" stroke-miterlimit="2.61313" d="M157.47 150.28c0,0 25.76,-29.02 46.43,6.18 0,0 13.25,21.79 -6.71,36.12 0,0 -14.3,9.55 -29.11,2.5 0,0 -19.07,-10.55 -16.3,-30.6 0,0 0.8,-9.65 5.69,-14.2z"/>
   <path fill="black" stroke="black" stroke-width="2" stroke-linecap="round" stroke-linejoin="round" stroke-miterlimit="2.61313" d="M266.6 173.73c0,0 1.19,-27.17 24.49,-32.83 0,0 20.06,-2.87 28.54,13.25 0,0 12.95,18.83 -4.21,35.66 0,0 -12.81,12.7 -31.4,6.24 0,0 -18.74,-9.03 -17.42,-22.32z"/>
   <path fill="white" d="M181.18 174.37c0,0 8.45,-7.68 14.49,0.79 0,0 6.97,8.92 -2.94,13.89 0,0 -7.83,4.38 -12.43,-3.43 0,0 -4.48,-4.35 0.88,-11.25z"/>
   <ellipse fill="white" transform="matrix(0.402551 -0.0389282 0.0389282 0.402551 194.531 158.933)" rx="11.27" ry="11.19"/>
   <ellipse fill="white" transform="matrix(0.375709 -0.0363324 0.0363324 0.375709 168.082 155.357)" rx="8.86" ry="5.19"/>
   <ellipse fill="white" transform="matrix(0.375709 -0.0363324 0.0363324 0.375709 302.633 180.373)" rx="26.04" ry="24.6"/>
   <ellipse fill="white" transform="matrix(0.375709 -0.0363324 0.0363324 0.375709 308.55 158.41)" rx="10.5" ry="10.91"/>
   <ellipse fill="white" transform="matrix(0.375709 -0.0363324 0.0363324 0.375709 287.024 158.618)" rx="8.75" ry="6.79"/>
  </g>
 </g>
</svg>
