<?xml version="1.0" encoding="UTF-8"?>
<!DOCTYPE svg PUBLIC "-//W3C//DTD SVG 1.1//EN" "http://www.w3.org/Graphics/SVG/1.1/DTD/svg11.dtd">
<!-- Creator: CorelDRAW 2021 (64-Bit) -->
<svg xmlns="http://www.w3.org/2000/svg" xml:space="preserve" width="500px" height="500px" version="1.1" shape-rendering="geometricPrecision" text-rendering="geometricPrecision" image-rendering="optimizeQuality" fill-rule="evenodd" clip-rule="evenodd"
viewBox="0 0 500 500"
 xmlns:xlink="http://www.w3.org/1999/xlink"
 xmlns:xodm="http://www.corel.com/coreldraw/odm/2003">
 <defs>
   <clipPath id="id0">
    <rect x="19.26" y="0.09" width="461.47" height="468.42"/>
   </clipPath>
 </defs>
 <g id="Layer_x0020_1" visibility="hidden">
  <metadata id="CorelCorpID_0Corel-Layer"/>
  <g clip-path="url(#id0)">
   <image x="19.26" y="0.09" width="461.47" height="468.41" xlink:href="4_Images\4_ImgID1.png"/>
  </g>
 </g>
 <g id="Layer_x0020_2">
  <metadata id="CorelCorpID_1Corel-Layer"/>
  <rect fill="none" y="-1" width="500" height="500"/>
  <g id="_1752643282976">
   <g>
    <path fill="black" stroke="black" stroke-width="2" stroke-linecap="round" stroke-linejoin="round" stroke-miterlimit="2.61313" d="M232.5 198.07c0,0 24.3,-8.47 17.6,-15.87 0,0 -4.57,-5.98 -19.52,-3.64 0,0 -18.8,0.98 -18.02,7 0,0 0.05,1.78 2.11,4.03 2.44,2.65 6.48,6.66 17.83,8.48z"/>
    <path fill="white" stroke="black" stroke-width="2" stroke-linecap="round" stroke-linejoin="round" stroke-miterlimit="2.61313" d="M216.81 183.71c0,0 0.77,-8.12 22.75,-3.63 0,0 6.1,1.65 2.83,5.13 0,0 -16.64,1.07 -21.58,2.07 0,0 -4.38,-0.54 -4,-3.57z"/>
    <path fill="#FF9999" stroke="black" stroke-width="2" stroke-linecap="round" stroke-linejoin="round" stroke-miterlimit="2.61313" d="M201.66 208.53c0,0 0.9,-3.1 5.6,-4.69l-5.6 4.69z"/>
    <g>
     <path fill="#BC4B47" d="M204.46 206.18c0,0 4.23,4.53 9.48,7.14l-9.48 -7.14zm47.13 9.26c-3.86,24.84 -21.41,25.09 -21.41,25.09 -16.57,-1.6 -16.24,-27.2 -16.24,-27.2 5.41,2.7 12.61,4.19 19.55,-0.96 0,0 7.26,7.2 18.1,3.07zm0 0c2.39,-0.91 5.09,-2.42 7.78,-4.62l-7.78 4.62z"/>
     <path id="_1" fill="none" stroke="black" stroke-width="2" stroke-linecap="round" stroke-linejoin="round" stroke-miterlimit="2.61313" d="M204.46 206.18c0,0 4.23,4.53 9.48,7.14m37.65 2.12c-3.86,24.84 -21.41,25.09 -21.41,25.09 -16.57,-1.6 -16.24,-27.2 -16.24,-27.2 5.41,2.7 12.61,4.19 19.55,-0.96 0,0 7.26,7.2 18.1,3.07zm0 0c2.39,-0.91 5.09,-2.42 7.78,-4.62"/>
    </g>
    <path fill="none" stroke="black" stroke-width="2" stroke-linecap="round" stroke-linejoin="round" stroke-miterlimit="2.61313" d="M258.26 207.85c0,0 0.39,1.46 1.11,2.97m0 0c0.59,1.23 1.39,2.49 2.37,3.06"/>
    <path fill="#FF9FA0" d="M243.68 232.21c-8.99,8.44 -13.42,7.38 -13.42,7.38 -5.84,-0.57 -8.42,-3.79 -11.16,-8.04 12.8,-13.81 24.32,0.21 24.58,0.66z"/>
    <line fill="none" stroke="black" stroke-width="2" stroke-linecap="round" stroke-linejoin="round" stroke-miterlimit="2.61313" x1="232.5" y1="198.07" x2="233.49" y2= "212.37" />
   </g>
  </g>
 </g>
</svg>
