<?xml version="1.0" encoding="UTF-8"?>
<!DOCTYPE svg PUBLIC "-//W3C//DTD SVG 1.1//EN" "http://www.w3.org/Graphics/SVG/1.1/DTD/svg11.dtd">
<!-- Creator: CorelDRAW 2021 (64-Bit) -->
<svg xmlns="http://www.w3.org/2000/svg" xml:space="preserve" width="500px" height="500px" version="1.1" shape-rendering="geometricPrecision" text-rendering="geometricPrecision" image-rendering="optimizeQuality" fill-rule="evenodd" clip-rule="evenodd"
viewBox="0 0 500 500"
 xmlns:xlink="http://www.w3.org/1999/xlink"
 xmlns:xodm="http://www.corel.com/coreldraw/odm/2003">
 <g id="Layer_x0020_1" visibility="hidden">
  <metadata id="CorelCorpID_0Corel-Layer"/>
 </g>
 <g id="Layer_x0020_2">
  <metadata id="CorelCorpID_1Corel-Layer"/>
  <rect fill="none" x="-1.59" y="-1" width="500" height="500"/>
  <g id="_2059326708512">
   <path fill="#FF6633" d="M340.79 296.66c4.69,9.87 10.92,21.23 15.72,34.58 -11.11,2.8 -41.31,2.64 -46.7,-7.11 -5.95,-10.75 23.93,-22.67 30.98,-27.47z"/>
   <path fill="#FF6633" d="M252.48 425.25c8.71,0.31 28.7,-4.81 30.2,-2.87 0.62,0.82 -3.83,6.13 -7.4,9.86 -2.16,2.25 -4.12,3.82 -4.12,3.82 -12.96,8.83 -16.32,1.75 -18.68,-10.81z"/>
   <path fill="#FF6633" d="M213.11 430.33c-0.62,-1.09 23.48,10.26 28.86,-10.33 0,0 1.37,17.65 -11.61,23.81 0,0 -15.53,-5.14 -17.25,-13.48z"/>
   <path fill="#FF6633" d="M408.2 339.77c0,0 24.36,20.65 23.53,-5.19 0.49,-0.49 -2.86,-6.45 -17.24,-3l-6.29 8.19z"/>
   <path fill="#FF6633" d="M174.27 114.3c14.54,-5.61 43.34,-20.77 113.87,-15.23 -10.74,34.04 -40,52.31 -70.36,24.74 0,0 -48.81,6.38 -44.21,-7.43 4.61,-13.81 0.03,-0.07 0.7,-2.08z"/>
   <path fill="#FF6633" d="M197.08 312.39c0,0 13.55,-22.6 37.22,1.67 28.05,-3.18 27.64,15.97 4.85,20.98 0,0 -12.33,-1.61 -19.82,-14.76 0,0 -22.45,2.42 -22.25,-7.89z"/>
   <path fill="#FF6633" d="M276.4 367.28c0,0 0,-17.2 11.79,-11.79 11.8,5.41 7.36,14.57 7.36,14.57 0,0 -11.93,16.65 -15.54,6.93 -3.61,-9.71 -3.61,-9.71 -3.61,-9.71z"/>
   <path fill="#FF6633" d="M183.48 359.54c0,0 29.69,-16.57 27.62,0 -2.07,16.57 16.91,11.73 8.63,18.98 -8.29,7.25 -25.2,19.68 -31.42,13.47 -6.21,-6.22 -22.78,-12.43 -4.83,-32.45z"/>
   <path fill="#FF6633" d="M143.64 400c-18.02,-33.85 -12.49,-45.51 3.75,-85.64 28.32,13.75 -1.05,82.79 -3.75,85.64z"/>
  </g>
 </g>
</svg>
