<?xml version="1.0" encoding="UTF-8"?>
<!DOCTYPE svg PUBLIC "-//W3C//DTD SVG 1.1//EN" "http://www.w3.org/Graphics/SVG/1.1/DTD/svg11.dtd">
<!-- Creator: CorelDRAW 2021 (64-Bit) -->
<svg xmlns="http://www.w3.org/2000/svg" xml:space="preserve" width="500px" height="500px" version="1.1" shape-rendering="geometricPrecision" text-rendering="geometricPrecision" image-rendering="optimizeQuality" fill-rule="evenodd" clip-rule="evenodd"
viewBox="0 0 500 500"
 xmlns:xlink="http://www.w3.org/1999/xlink"
 xmlns:xodm="http://www.corel.com/coreldraw/odm/2003">
 <g id="Layer_x0020_1" visibility="hidden">
  <metadata id="CorelCorpID_0Corel-Layer"/>
 </g>
 <g id="Layer_x0020_2">
  <metadata id="CorelCorpID_1Corel-Layer"/>
  <rect fill="none" x="-1.59" y="-1" width="500" height="500"/>
  <g id="_2059261931968">
   <path fill="gray" d="M251.38 415.67c29.81,16.36 24.13,3.6 32.28,5.6 1.3,0.31 -0.87,1.58 -3.6,5.14 -3,3.91 -6.72,10.2 -15.58,13.16 -0.03,-0.01 -6.45,1.93 -9.87,-7.03 -0.78,-2.05 -1.78,-4.98 -2.27,-8.35 -0.38,-2.63 -0.65,-5.55 -0.96,-8.52z"/>
   <path fill="gray" d="M210.09 422.81c28.39,10.1 20.97,-7.86 33.4,-10.85 0,0 4.24,15.9 -10.5,30.4 -0.64,0.63 -1.96,0.59 -2.77,1.1 0,0.07 -16.09,-3.45 -20.13,-20.65z"/>
   <path fill="gray" d="M136.69 381.72c-1.15,-5.82 -1.17,-11.54 -0.35,-17.95 0,0 0.44,-27.32 13.82,-55.3l11.35 4.06c0,0 46.51,11.3 -9.12,18.31 0,0 -5.31,6.14 1.49,6.02 6.8,-0.12 46.27,0.41 42.38,8.95 -3.9,8.53 -50.07,12.96 -50.07,12.96 0,0 -5.3,6.14 0.14,6.05 5.44,-0.1 27.23,0.74 20.59,8.11 -3.54,3.92 -22.71,7.75 -30.23,8.79z"/>
   <polygon fill="gray" points="388.04,358.12 399.05,370.34 406.14,367.96 393.7,353.96 "/>
   <polygon fill="gray" points="375.01,363.92 383.44,373.43 391.85,372.32 382.21,361.28 "/>
   <polygon fill="gray" points="397.84,350.57 414.36,364.13 418.63,361.72 421.69,359.53 402.62,345.78 "/>
   <path fill="gray" d="M414.61 342.69c0,0 19.04,6.98 17.38,-4.37l-0.8 -4.53 -1.7 -1.41 -2.21 -1.33c-0.88,-0.52 -8.37,-0.63 -11.79,0.85 -1.66,0.72 -2.44,1.69 -2.7,2.53 -0.17,0.56 -0.18,1.46 0.05,2.53 0.35,1.67 1.23,3.79 1.77,5.73z"/>
   <path fill="gray" d="M212.11 102.58c8.46,-1.8 16.37,-3.17 28.46,-3.94l-3.61 8.47c45.78,-0.82 34.64,8.25 34.64,8.25 0,0 -32.99,3.3 -30.93,9.9 2.06,6.6 25.98,3.71 25.98,3.71 0,7.42 -23.51,7.01 -23.51,7.01 0,0 -5.13,-1.65 -5.54,19.8 -0.41,21.44 -10.54,-7.01 -10.54,-7.01 0,0 -1.65,-14.85 -15.26,-9.9 -13.61,4.95 -14.85,-5.36 -14.85,-5.36 0,0 12.38,2.06 18.56,-4.54 6.19,-6.6 0,-8.66 0,-8.66 0,0 -34.23,3.3 -32.17,0 2.07,-3.3 24.34,-8.66 31.76,-9.49 7.43,-0.82 0,-7.01 0,-7.01l-2.99 -1.23z"/>
   <path fill="gray" d="M362.82 369.32c0.14,-5.06 -0.75,-12.16 -1.83,-18.27 0,0 -2.75,-26.09 -19.91,-52.88 -18.6,8.97 -49.12,16.69 1.81,21.88 0,0 5.49,6.01 -1.31,6.05 -6.8,0.05 -46.25,1.51 -42.1,9.95 4.15,8.44 50.44,11.77 50.44,11.77 0,0 5.49,6.01 0.05,6.05 -5.44,0.03 -27.2,1.38 -20.34,8.6 6.86,7.21 23.18,5.9 23.18,5.9 0,0 5.25,0.41 10.01,0.95z"/>
  </g>
 </g>
</svg>
