<?xml version="1.0" encoding="UTF-8"?>
<!DOCTYPE svg PUBLIC "-//W3C//DTD SVG 1.1//EN" "http://www.w3.org/Graphics/SVG/1.1/DTD/svg11.dtd">
<!-- Creator: CorelDRAW 2021 (64-Bit) -->
<svg xmlns="http://www.w3.org/2000/svg" xml:space="preserve" width="500px" height="500px" version="1.1" shape-rendering="geometricPrecision" text-rendering="geometricPrecision" image-rendering="optimizeQuality" fill-rule="evenodd" clip-rule="evenodd"
viewBox="0 0 500 500"
 xmlns:xlink="http://www.w3.org/1999/xlink"
 xmlns:xodm="http://www.corel.com/coreldraw/odm/2003">
 <g id="Layer_x0020_1" visibility="hidden">
  <metadata id="CorelCorpID_0Corel-Layer"/>
 </g>
 <g id="Layer_x0020_2">
  <metadata id="CorelCorpID_1Corel-Layer"/>
  <rect fill="none" x="-1.59" y="-1" width="500" height="500"/>
  <g id="_1717354494864">
   <path fill="#DB3333" stroke="black" stroke-width="4" stroke-linecap="round" stroke-linejoin="round" stroke-miterlimit="2.61313" d="M248.6 217.5c0,0 -11.42,-3.87 -11.92,-10.7 0.43,-1.83 12.73,-6.03 19.06,-3.41 0,0 4.85,2.07 -7.14,14.11z"/>
   <path fill="none" stroke="black" stroke-width="4" stroke-linecap="round" stroke-linejoin="round" stroke-miterlimit="2.61313" d="M235.42 223.54c0.12,1 15.01,15.16 28.15,-3.57m-39.95 0.33c0,0 17.71,8.99 24.98,-2.8m0 0c0,0 10.37,10.81 24.38,-4.66"/>
   <path fill="#FF9999" d="M236.83 224.21c0.33,-0.17 7.2,0.69 11.88,-5.7 0.27,-0.04 5.09,4.86 13.08,2.75 -3.44,4.31 -13.17,13.69 -24.96,2.95z"/>
  </g>
 </g>
</svg>
