<?xml version="1.0" encoding="UTF-8"?>
<!DOCTYPE svg PUBLIC "-//W3C//DTD SVG 1.1//EN" "http://www.w3.org/Graphics/SVG/1.1/DTD/svg11.dtd">
<!-- Creator: CorelDRAW 2021 (64-Bit) -->
<svg xmlns="http://www.w3.org/2000/svg" xml:space="preserve" width="500px" height="500px" version="1.1" shape-rendering="geometricPrecision" text-rendering="geometricPrecision" image-rendering="optimizeQuality" fill-rule="evenodd" clip-rule="evenodd"
viewBox="0 0 500 500"
 xmlns:xlink="http://www.w3.org/1999/xlink"
 xmlns:xodm="http://www.corel.com/coreldraw/odm/2003">
 <g id="Layer_x0020_1" visibility="hidden">
  <metadata id="CorelCorpID_0Corel-Layer"/>
 </g>
 <g id="Layer_x0020_2">
  <metadata id="CorelCorpID_1Corel-Layer"/>
  <rect fill="none" x="-1.59" y="-1" width="500" height="500"/>
  <g id="_1752581631504">
   <g>
    <path fill="black" stroke="black" stroke-width="2" stroke-linecap="round" stroke-linejoin="round" stroke-miterlimit="2.61313" d="M244.21 216.03c0,0 23.45,-10.59 16.12,-17.37 0,0 -5.08,-5.56 -19.76,-1.89 0,0 -18.65,2.64 -17.33,8.58 0,0 0.2,1.76 2.45,3.81 2.67,2.43 7.05,6.07 18.52,6.87z"/>
    <path fill="white" stroke="black" stroke-width="2" stroke-linecap="round" stroke-linejoin="round" stroke-miterlimit="2.61313" d="M227.31 203.12c0,0 0.04,-8.15 22.33,-5.64 0,0 6.22,1.11 3.28,4.86 0,0 -16.48,2.55 -21.31,3.99 0,0 -4.41,-0.16 -4.3,-3.21z"/>
    <path fill="#FF9999" stroke="black" stroke-width="2" stroke-linecap="round" stroke-linejoin="round" stroke-miterlimit="2.61313" d="M214.42 229.19c0,0 0.62,-3.16 5.16,-5.17l-5.16 5.17z"/>
    <g>
     <path fill="#BC4B47" d="M217 226.6c0,0 4.62,4.14 10.08,6.27l-10.08 -6.27zm47.77 5.03c-1.64,25.09 -19.11,26.9 -19.11,26.9 -16.64,-0.12 -18.58,-25.65 -18.58,-25.65 5.63,2.2 12.93,3.06 19.39,-2.69 0,0 7.87,6.52 18.3,1.44zm0 0c2.29,-1.11 4.85,-2.85 7.34,-5.28l-7.34 5.28z"/>
     <path id="_1" fill="none" stroke="black" stroke-width="2" stroke-linecap="round" stroke-linejoin="round" stroke-miterlimit="2.61313" d="M217 226.6c0,0 4.62,4.14 10.08,6.27m37.69 -1.24c-1.64,25.09 -19.11,26.9 -19.11,26.9 -16.64,-0.12 -18.58,-25.65 -18.58,-25.65 5.63,2.2 12.93,3.06 19.39,-2.69 0,0 7.87,6.52 18.3,1.44zm0 0c2.29,-1.11 4.85,-2.85 7.34,-5.28"/>
    </g>
    <path fill="none" stroke="black" stroke-width="2" stroke-linecap="round" stroke-linejoin="round" stroke-miterlimit="2.61313" d="M270.73 223.49c0,0 0.52,1.41 1.38,2.86m0 0c0.69,1.17 1.6,2.35 2.63,2.84"/>
    <path fill="#FF9FA0" d="M258.38 249.04c-8.21,9.21 -12.72,8.54 -12.72,8.54 -5.86,-0.04 -8.71,-3.02 -11.83,-7.01 11.53,-14.89 24.25,-1.96 24.55,-1.53z"/>
    <line fill="none" stroke="black" stroke-width="2" stroke-linecap="round" stroke-linejoin="round" stroke-miterlimit="2.61313" x1="244.21" y1="216.03" x2="246.47" y2= "230.19" />
   </g>
  </g>
 </g>
</svg>
