<?xml version="1.0" encoding="UTF-8"?>
<!DOCTYPE svg PUBLIC "-//W3C//DTD SVG 1.1//EN" "http://www.w3.org/Graphics/SVG/1.1/DTD/svg11.dtd">
<!-- Creator: CorelDRAW 2021 (64-Bit) -->
<svg xmlns="http://www.w3.org/2000/svg" xml:space="preserve" width="500px" height="500px" version="1.1" shape-rendering="geometricPrecision" text-rendering="geometricPrecision" image-rendering="optimizeQuality" fill-rule="evenodd" clip-rule="evenodd"
viewBox="0 0 500 500"
 xmlns:xlink="http://www.w3.org/1999/xlink"
 xmlns:xodm="http://www.corel.com/coreldraw/odm/2003">
 <g id="Layer_x0020_1" visibility="hidden">
  <metadata id="CorelCorpID_0Corel-Layer"/>
 </g>
 <g id="Layer_x0020_2">
  <metadata id="CorelCorpID_1Corel-Layer"/>
  <rect fill="none" x="-1.59" y="-1" width="500" height="500"/>
  <g id="_1716636599120">
   <g>
    <path fill="none" stroke="black" stroke-width="2" stroke-linecap="round" stroke-linejoin="round" stroke-miterlimit="2.61313" d="M229.79 209.45c0,0 0.89,0.27 2.26,0.48 1.38,0.2 3.23,0.33 5.17,0.05 0,0 4.71,29.1 13.12,30.63 4.2,0.77 6.13,-7.21 7.01,-15.38 0.87,-8.17 0.7,-16.54 0.7,-16.54 -7.18,0.51 -11.74,-6.94 -11.74,-6.94 -1.55,5.71 -5.46,7.7 -9.09,8.23m20.83 -1.29c2.04,-0.14 4.29,-0.93 6.71,-2.71"/>
    <path fill="#FF9966" d="M238.36 210.78c0,0 5.71,-0.75 8.27,-6.9 0,0 4.12,5.52 10.52,5.83 0,0 0.5,28.94 -6.05,30 0,0 -6.96,1.95 -12.74,-28.93z"/>
   </g>
   <path fill="#FFCC99" d="M243.64 230.6c0,0 5.9,-8.39 12.32,-1.27 0,0 -0.61,8.11 -4.55,10.46 -1.11,0.13 -4.35,-0.38 -7.77,-9.19z"/>
  </g>
 </g>
</svg>
