<?xml version="1.0" encoding="UTF-8"?>
<!DOCTYPE svg PUBLIC "-//W3C//DTD SVG 1.1//EN" "http://www.w3.org/Graphics/SVG/1.1/DTD/svg11.dtd">
<!-- Creator: CorelDRAW 2021 (64-Bit) -->
<svg xmlns="http://www.w3.org/2000/svg" xml:space="preserve" width="500px" height="500px" version="1.1" shape-rendering="geometricPrecision" text-rendering="geometricPrecision" image-rendering="optimizeQuality" fill-rule="evenodd" clip-rule="evenodd"
viewBox="0 0 500 500"
 xmlns:xlink="http://www.w3.org/1999/xlink"
 xmlns:xodm="http://www.corel.com/coreldraw/odm/2003">
 <g id="Layer_x0020_1" visibility="hidden">
  <metadata id="CorelCorpID_0Corel-Layer"/>
 </g>
 <g id="Layer_x0020_2">
  <metadata id="CorelCorpID_1Corel-Layer"/>
  <rect fill="none" x="-1.59" y="-1" width="500" height="500"/>
  <g>
   <path fill="#FF6600" d="M107.02 89.76c24.84,-4.45 49.98,24.59 62.61,22.25 12.62,-2.34 38.33,-23.37 122,-16.36 0,0 30.35,-23.83 54.43,-31.84 0.93,0.94 8.51,14.55 8.9,38.29 0.15,9.14 -0.71,16.48 -1.62,31.41 0,0 4.67,2.34 7.47,0.94 0,0 -14.02,41.13 29.45,76.66 0,0 -16.82,-2.81 -16.36,2.8 0.47,5.62 10.76,15.43 10.76,15.43 0,0 -20.57,0 -17.3,3.74 3.27,3.74 2.34,14.49 2.34,14.49l-15.43 -2.8c0,0 -7.48,21.97 -18.23,27.58 -9.57,4.99 46.05,60.63 26.18,123.19 -9.56,30.09 -48.31,38.5 -76.12,29.24 0,0 -14.93,24.29 -27.73,17.89 -12.79,-6.4 -10.66,-32.7 -10.66,-32.7 0,0 -4.39,45.13 -22.04,36.22 -17.32,-8.75 -19.2,-21.29 -19.2,-21.29 0,0 -64.69,18.48 -74.65,-49.06 0,0 -1.16,-54.93 28.59,-91.9 0,0 -7.67,-5.81 -7.67,-12.08 0,0 -16.5,10.69 -18.36,6.51 0,0 4.41,-9.77 4.41,-15.35 0,0 -15.11,4.42 -16.73,2.56 -1.63,-1.86 3.72,-18.37 3.72,-18.37 0,0 -16.74,1.4 -19.53,-2.32 0,0 21.57,-6.15 15.47,-52.1 0,0 -11.79,-28.05 1.62,-27.24 0,0 -11.27,8.69 -16.32,-75.79zm259.32 271.34c0,0 21.17,2.49 45.64,-32.98 0,0 36.54,-11 20.93,26.24 0,0 -18.04,25.34 -66.99,23.92l0.42 -17.18z"/>
   <path id="_1" fill="none" stroke="black" stroke-width="8" stroke-linecap="round" stroke-linejoin="round" stroke-miterlimit="2.61313" d="M107.02 89.76c24.84,-4.45 49.98,24.59 62.61,22.25 12.62,-2.34 38.33,-23.37 122,-16.36 0,0 30.35,-23.83 54.43,-31.84 0.93,0.94 8.51,14.55 8.9,38.29 0.15,9.14 -0.71,16.48 -1.62,31.41 0,0 4.67,2.34 7.47,0.94 0,0 -14.02,41.13 29.45,76.66 0,0 -16.82,-2.81 -16.36,2.8 0.47,5.62 10.76,15.43 10.76,15.43 0,0 -20.57,0 -17.3,3.74 3.27,3.74 2.34,14.49 2.34,14.49l-15.43 -2.8c0,0 -7.48,21.97 -18.23,27.58 -9.57,4.99 46.05,60.63 26.18,123.19 -9.56,30.09 -48.31,38.5 -76.12,29.24 0,0 -14.93,24.29 -27.73,17.89 -12.79,-6.4 -10.66,-32.7 -10.66,-32.7 0,0 -4.39,45.13 -22.04,36.22 -17.32,-8.75 -19.2,-21.29 -19.2,-21.29 0,0 -64.69,18.48 -74.65,-49.06 0,0 -1.16,-54.93 28.59,-91.9 0,0 -7.67,-5.81 -7.67,-12.08 0,0 -16.5,10.69 -18.36,6.51 0,0 4.41,-9.77 4.41,-15.35 0,0 -15.11,4.42 -16.73,2.56 -1.63,-1.86 3.72,-18.37 3.72,-18.37 0,0 -16.74,1.4 -19.53,-2.32 0,0 21.57,-6.15 15.47,-52.1 0,0 -11.79,-28.05 1.62,-27.24 0,0 -11.27,8.69 -16.32,-75.79zm259.32 271.34c0,0 21.17,2.49 45.64,-32.98 0,0 36.54,-11 20.93,26.24 0,0 -18.04,25.34 -66.99,23.92"/>
  </g>
 </g>
</svg>
