<?xml version="1.0" encoding="UTF-8"?>
<!DOCTYPE svg PUBLIC "-//W3C//DTD SVG 1.1//EN" "http://www.w3.org/Graphics/SVG/1.1/DTD/svg11.dtd">
<!-- Creator: CorelDRAW 2021 (64-Bit) -->
<svg xmlns="http://www.w3.org/2000/svg" xml:space="preserve" width="500px" height="500px" version="1.1" shape-rendering="geometricPrecision" text-rendering="geometricPrecision" image-rendering="optimizeQuality" fill-rule="evenodd" clip-rule="evenodd"
viewBox="0 0 500 500"
 xmlns:xlink="http://www.w3.org/1999/xlink"
 xmlns:xodm="http://www.corel.com/coreldraw/odm/2003">
 <g id="Layer_x0020_2">
  <metadata id="CorelCorpID_0Corel-Layer"/>
  <rect fill="none" x="0.47" y="0.39" width="500" height="500"/>
  <g id="_1717681184144">
   <path fill="#FFCC00" stroke="black" stroke-width="2" stroke-linecap="round" stroke-linejoin="round" stroke-miterlimit="2.61313" d="M123 105c0,0 22,0 30,-12 0,0 -14,-23 -20,-26 -6,-3 -13,24 -10,38z"/>
   <path fill="#FFCC00" stroke="black" stroke-width="2" stroke-linecap="round" stroke-linejoin="round" stroke-miterlimit="2.61313" d="M341 104c0,0 -28,-11 -28,-16 0,-5 19,-26 19,-26 0,0 13,11 9,42z"/>
   <path fill="yellow" d="M128.79 103.59l-5.08 0.22c0,0 -2.93,-21.06 7.38,-35.69 0,0 -4.99,20.69 -2.3,35.47z"/>
   <path fill="yellow" d="M334.19 100.05l5.86 2.51c0,0 3.51,-25.14 -7.93,-39.32 0,0 4.75,22.03 2.07,36.81z"/>
  </g>
 </g>
</svg>
