<?xml version="1.0" encoding="UTF-8"?>
<!DOCTYPE svg PUBLIC "-//W3C//DTD SVG 1.1//EN" "http://www.w3.org/Graphics/SVG/1.1/DTD/svg11.dtd">
<!-- Creator: CorelDRAW 2021 (64-Bit) -->
<svg xmlns="http://www.w3.org/2000/svg" xml:space="preserve" width="500px" height="500px" version="1.1" shape-rendering="geometricPrecision" text-rendering="geometricPrecision" image-rendering="optimizeQuality" fill-rule="evenodd" clip-rule="evenodd"
viewBox="0 0 500 500"
 xmlns:xlink="http://www.w3.org/1999/xlink"
 xmlns:xodm="http://www.corel.com/coreldraw/odm/2003">
 <g id="Layer_x0020_2">
  <metadata id="CorelCorpID_0Corel-Layer"/>
  <rect fill="none" x="0.47" y="0.39" width="500" height="500"/>
  <g id="_2059675132880">
   <path fill="#CC9933" d="M105 157c0,0 9.51,-43 10.51,-59 1,-16 1.88,-22.84 12.49,-39 0,0 6.4,-5.4 43.4,47.6 0,0 55.6,-16.08 109.6,1.92 0,0 22.58,-13.94 30.58,-32.94 8,-19 22.42,-25.58 22.42,-25.58 0,0 16,12 14,44 -2,32 7,60 9,61 2,1 2.85,10.15 22.85,7.15 0,0 1.15,5.85 -1.85,10.85 -0.7,1.16 -1.18,2.56 -1,3 0.68,1.65 8,-1 8,-1 28.36,10.74 -64.19,22.49 -157.88,23.44 -59.74,0.61 -118.93,-7.56 -145.92,-11.64 -6.89,-5.17 -13.99,-7.48 -13.04,-10.8 1.02,-3.57 15.68,2.85 17.68,-0.15 2,-3 -7.47,-13.48 -3.47,-17.48 0,0 7.89,5.36 14.63,2.63 6.73,-2.73 8,-4 8,-4z"/>
   <path fill="#CC9933" d="M144.09 431.56c-20.68,-6.72 -42.07,-17.97 -38.7,-53.53 0,0 6.33,-43.02 20.61,-71.03 34.96,31.63 40.25,84.96 18.09,124.56z"/>
   <path fill="#CC9933" d="M353.19 316.47c18.25,49.86 37.34,98.84 -20.77,116.36 -28.57,-50.21 -6.38,-73.71 20.77,-116.36z"/>
   <path fill="#CC9933" d="M182 294.67c0,0 93,1.33 100,-5.67 0,0 -25.29,24.38 -37,28.65 0,0 -3.55,2.08 -14.27,-9.14 0,0 -2.41,3.84 -1.73,9.49 0,0 -14,-11 -19,-12 -5,-1 -4,9 -4,9l-24 -20.33z"/>
   <path fill="none" stroke="black" stroke-width="5" stroke-linecap="round" stroke-linejoin="round" stroke-miterlimit="2.61313" d="M180 295c0,0 22,23 28,23 0,0 -1,-6 2,-10 0,0 18,9 22,17 0,0 0,-8 -1,-13 0,0 10,10 15,8 5,-2 35,-23 37,-29"/>
   <path fill="#CC9933" d="M193 439c0,0 23,8 31,1 -11,20 -22.56,10.82 -31,-1z"/>
   <path fill="#CC9933" d="M239.86 440c0,0 23.15,6 31.31,0 -9.17,10 -25.63,18.94 -31.31,0z"/>
  </g>
  <g id="_2059675190912">
   <path fill="#996633" d="M256.17 102.45c7.47,1.22 15.17,2.95 22.86,5.43 1.08,9.93 2.61,28.3 -11.03,30.12 -16.85,5.62 -13.52,-25.88 -11.83,-35.55z"/>
   <path fill="#996633" d="M214.32 100.25c9.28,-0.61 19.63,-0.09 30.63,0.95 0,7.74 -1.01,58.24 -20.95,47.8 -12.38,-5.31 -11.06,-36.58 -9.68,-48.75z"/>
   <path fill="#996633" d="M179.1 104.75c5.53,-1.4 15.48,-2.75 27.82,-4.02 1.15,12.1 2.12,42.54 -16.92,41.27 -15.8,-1.05 -8.07,-29.68 -10.9,-37.25z"/>
   <path fill="#996633" d="M363 343c1.24,4.79 3.07,9.56 3.99,14.41 -5.19,0 -21.57,5.7 -23.99,-6.41 -2.26,-11.33 14.15,-2.15 20,-8z"/>
   <g>
    <path fill="#996633" d="M368.33 362.72c0.87,5.56 2.19,11.04 2.41,16.4l-2.74 -0.12c-22,-1 -30,0 -30,-10 0,-10.16 25.79,-5.35 31.71,-6.26l-1.38 -0.02zm2.97 -0.23c-0.63,0.91 -1.04,1.65 -1.19,2.19l1.19 -2.19z"/>
   </g>
   <path fill="#996633" d="M371.07 386c-0.1,4.5 -0.3,8.86 -1.06,13l-3.01 0c-19,0 -24,-2 -24,-9 0,-6.85 22.37,-4 28.07,-4z"/>
   <path fill="#996633" d="M114 339c-1.24,4.79 -2.7,9.01 -3.62,13.86 9.94,0 22.36,4.1 24.42,-6.25 2.27,-11.33 -14.96,-1.76 -20.8,-7.61z"/>
   <path fill="#996633" d="M107.99 358.34c-0.87,5.56 -1.45,11.07 -1.68,16.43l3.49 -0.16c22,-1 30,0 30,-10 0,-10.15 -25.79,-5.35 -31.71,-6.26l-0.1 -0.01z"/>
   <path fill="#996633" d="M105.71 381.08c0.09,4.51 -0.19,9.39 0.57,13.53l4.52 0c19,0 24,-1.99 24,-9 0,-7 -25,-3.99 -25,-3.99l-4.09 -0.54z"/>
  </g>
 </g>
</svg>
