<?xml version="1.0" encoding="UTF-8"?>
<!DOCTYPE svg PUBLIC "-//W3C//DTD SVG 1.1//EN" "http://www.w3.org/Graphics/SVG/1.1/DTD/svg11.dtd">
<!-- Creator: CorelDRAW 2021 (64-Bit) -->
<svg xmlns="http://www.w3.org/2000/svg" xml:space="preserve" width="500px" height="500px" version="1.1" shape-rendering="geometricPrecision" text-rendering="geometricPrecision" image-rendering="optimizeQuality" fill-rule="evenodd" clip-rule="evenodd"
viewBox="0 0 500 500"
 xmlns:xlink="http://www.w3.org/1999/xlink"
 xmlns:xodm="http://www.corel.com/coreldraw/odm/2003">
 <defs>
   <clipPath id="id0">
    <rect x="-566.65" y="7.11" width="400" height="400"/>
   </clipPath>
   <clipPath id="id1">
    <rect x="-929.46" y="504.95" width="601.63" height="601.63"/>
   </clipPath>
 </defs>
 <g id="sampel" visibility="hidden">
  <metadata id="CorelCorpID_0Corel-Layer"/>
  <g clip-path="url(#id0)">
   <image x="-566.65" y="7.11" width="400" height="400" xlink:href="5_Images\5_ImgID1.png"/>
  </g>
  <g clip-path="url(#id1)">
   <image x="-929.46" y="504.95" width="601.63" height="601.63" xlink:href="5_Images\5_ImgID2.png"/>
  </g>
  <ellipse fill="#F7B813" stroke="black" stroke-width="2" stroke-linecap="round" stroke-linejoin="round" stroke-miterlimit="2.61313" cx="8.46" cy="626.35" rx="34.16" ry="33.24"/>
  <ellipse fill="#E96300" stroke="black" stroke-width="2" stroke-linecap="round" stroke-linejoin="round" stroke-miterlimit="2.61313" cx="99.01" cy="628.56" rx="34.16" ry="33.24"/>
  <ellipse fill="#FFD952" stroke="black" stroke-width="2" stroke-linecap="round" stroke-linejoin="round" stroke-miterlimit="2.61313" cx="192.41" cy="626.96" rx="34.16" ry="33.24"/>
  <ellipse fill="#E98700" stroke="black" stroke-width="2" stroke-linecap="round" stroke-linejoin="round" stroke-miterlimit="2.61313" cx="287.41" cy="624.57" rx="34.16" ry="33.24"/>
  <ellipse fill="#FFED8B" stroke="black" stroke-width="2" stroke-linecap="round" stroke-linejoin="round" stroke-miterlimit="2.61313" cx="384.78" cy="621.19" rx="34.16" ry="33.24"/>
  <ellipse fill="#E3B085" stroke="black" stroke-width="2" stroke-linecap="round" stroke-linejoin="round" stroke-miterlimit="2.61313" cx="486.71" cy="621.19" rx="34.16" ry="33.24"/>
  <ellipse fill="#B11914" stroke="black" stroke-width="2" stroke-linecap="round" stroke-linejoin="round" stroke-miterlimit="2.61313" cx="13.15" cy="746.61" rx="42.31" ry="40.8"/>
  <ellipse fill="#B11914" stroke="black" stroke-width="2" stroke-linecap="round" stroke-linejoin="round" stroke-miterlimit="2.61313" cx="124.62" cy="743.75" rx="42.31" ry="40.8"/>
 </g>
 <g id="Layer_x0020_1">
  <metadata id="CorelCorpID_1Corel-Layer"/>
  <rect fill="none" x="1.89" y="-0.62" width="500" height="500"/>
  <g id="_1784011836592">
   <g>
    <path fill="#FF6600" d="M372.87 364.08c0,0 21.87,-17.01 12.35,-39.99 -9.53,-22.98 27.21,-18.15 27.21,-18.15 0,0 57.14,25.41 -27.21,85.89l-4.08 2.41 -8.27 -30.16zm-270.65 -214.17c0,0 -13.6,-58.06 -8.16,-95.56 0,0 39.46,1.21 73.47,33.87 0,0 4.08,-9.68 42.18,-9.68 0,0 23.13,-4.84 28.57,-19.35 0,0 6.8,4.84 2.72,19.35l16.33 -12.09c0,0 4.08,9.37 0,15.57 0,0 40.81,-5.9 65.3,6.2 0,0 38.1,-35.08 65.31,-33.87 0,0 17.69,4.84 -10.88,85.88 0,0 77.55,94.35 -38.1,148.78 0,0 57.14,88.3 29.93,125.8 -27.21,37.49 -73.47,27.82 -73.47,27.82 0,0 -24.49,25.4 -38.09,-1.21l-21.77 0c0,0 -21.74,29.03 -38.08,0 0,0 -100.7,15.72 -87.09,-65.32 0,0 6.8,-45.96 34.01,-79.83 0,0 -72.11,-21.78 -66.67,-88.3 0,0 -6.04,-30.92 24.49,-58.06z"/>
    <path id="_1" fill="none" stroke="black" stroke-width="8" stroke-linecap="round" stroke-linejoin="round" stroke-miterlimit="2.61313" d="M372.87 364.08c0,0 21.87,-17.01 12.35,-39.99 -9.53,-22.98 27.21,-18.15 27.21,-18.15 0,0 57.14,25.41 -27.21,85.89l-4.08 2.41m-278.92 -244.33c0,0 -13.6,-58.06 -8.16,-95.56 0,0 39.46,1.21 73.47,33.87 0,0 4.08,-9.68 42.18,-9.68 0,0 23.13,-4.84 28.57,-19.35 0,0 6.8,4.84 2.72,19.35l16.33 -12.09c0,0 4.08,9.37 0,15.57 0,0 40.81,-5.9 65.3,6.2 0,0 38.1,-35.08 65.31,-33.87 0,0 17.69,4.84 -10.88,85.88 0,0 77.55,94.35 -38.1,148.78 0,0 57.14,88.3 29.93,125.8 -27.21,37.49 -73.47,27.82 -73.47,27.82 0,0 -24.49,25.4 -38.09,-1.21l-21.77 0c0,0 -21.74,29.03 -38.08,0 0,0 -100.7,15.72 -87.09,-65.32 0,0 6.8,-45.96 34.01,-79.83 0,0 -72.11,-21.78 -66.67,-88.3 0,0 -6.04,-30.92 24.49,-58.06z"/>
   </g>
   <path fill="none" stroke="black" stroke-width="8" stroke-linecap="round" stroke-linejoin="round" stroke-miterlimit="2.61313" d="M187.94 422.06c0,0 0.96,9.22 9.54,19.36"/>
   <path fill="none" stroke="black" stroke-width="8" stroke-linecap="round" stroke-linejoin="round" stroke-miterlimit="2.61313" d="M241 418.44c0,0 1.36,8.46 -5.44,22.98"/>
   <path fill="none" stroke="black" stroke-width="8" stroke-linecap="round" stroke-linejoin="round" stroke-miterlimit="2.61313" d="M253.24 419.65c0,0 -2.72,3.62 4.09,21.77"/>
   <path fill="none" stroke="black" stroke-width="8" stroke-linecap="round" stroke-linejoin="round" stroke-miterlimit="2.61313" d="M300.86 418.44c0,0 1.37,10.88 -5.44,24.19"/>
  </g>
 </g>
</svg>
